%TF.GenerationSoftware,KiCad,Pcbnew,7.0.9*%
%TF.CreationDate,2024-07-30T16:44:57+08:00*%
%TF.ProjectId,LED,4c45442e-6b69-4636-9164-5f7063625858,rev?*%
%TF.SameCoordinates,Original*%
%TF.FileFunction,Copper,L2,Bot*%
%TF.FilePolarity,Positive*%
%FSLAX46Y46*%
G04 Gerber Fmt 4.6, Leading zero omitted, Abs format (unit mm)*
G04 Created by KiCad (PCBNEW 7.0.9) date 2024-07-30 16:44:57*
%MOMM*%
%LPD*%
G01*
G04 APERTURE LIST*
G04 Aperture macros list*
%AMRoundRect*
0 Rectangle with rounded corners*
0 $1 Rounding radius*
0 $2 $3 $4 $5 $6 $7 $8 $9 X,Y pos of 4 corners*
0 Add a 4 corners polygon primitive as box body*
4,1,4,$2,$3,$4,$5,$6,$7,$8,$9,$2,$3,0*
0 Add four circle primitives for the rounded corners*
1,1,$1+$1,$2,$3*
1,1,$1+$1,$4,$5*
1,1,$1+$1,$6,$7*
1,1,$1+$1,$8,$9*
0 Add four rect primitives between the rounded corners*
20,1,$1+$1,$2,$3,$4,$5,0*
20,1,$1+$1,$4,$5,$6,$7,0*
20,1,$1+$1,$6,$7,$8,$9,0*
20,1,$1+$1,$8,$9,$2,$3,0*%
G04 Aperture macros list end*
%TA.AperFunction,ComponentPad*%
%ADD10C,3.000000*%
%TD*%
%TA.AperFunction,ComponentPad*%
%ADD11C,4.000000*%
%TD*%
%TA.AperFunction,SMDPad,CuDef*%
%ADD12RoundRect,0.225000X-0.250000X0.225000X-0.250000X-0.225000X0.250000X-0.225000X0.250000X0.225000X0*%
%TD*%
%TA.AperFunction,SMDPad,CuDef*%
%ADD13RoundRect,0.250000X0.689429X0.229810X0.229810X0.689429X-0.689429X-0.229810X-0.229810X-0.689429X0*%
%TD*%
%TA.AperFunction,ViaPad*%
%ADD14C,0.800000*%
%TD*%
%TA.AperFunction,ViaPad*%
%ADD15C,1.000000*%
%TD*%
%TA.AperFunction,ViaPad*%
%ADD16C,1.500000*%
%TD*%
%TA.AperFunction,Conductor*%
%ADD17C,1.000000*%
%TD*%
%TA.AperFunction,Conductor*%
%ADD18C,0.250000*%
%TD*%
G04 APERTURE END LIST*
D10*
%TO.P,REF\u002A\u002A,2*%
%TO.N,Net-(LM3401-FB)*%
X114836200Y-120000000D03*
%TD*%
%TO.P,REF\u002A\u002A,1*%
%TO.N,+BATT*%
X105000000Y-90000000D03*
%TD*%
D11*
%TO.P,REF\u002A\u002A,2*%
%TO.N,Net-(LM3401-FB)*%
X115000000Y-90000000D03*
%TD*%
%TO.P,REF\u002A\u002A,1*%
%TO.N,+BATT*%
X104836228Y-119995127D03*
%TD*%
D12*
%TO.P,C1,1*%
%TO.N,+BATT*%
X109825384Y-94272475D03*
%TO.P,C1,2*%
%TO.N,-BATT*%
X109825384Y-95822475D03*
%TD*%
D13*
%TO.P,C2,1*%
%TO.N,Net-(LM3401-FB)*%
X113585966Y-86767983D03*
%TO.P,C2,2*%
%TO.N,-BATT*%
X111500000Y-84682017D03*
%TD*%
D14*
%TO.N,Net-(LM3401-FB)*%
X110000000Y-154250000D03*
X113750000Y-151500000D03*
X106000000Y-154250000D03*
X106000000Y-151500000D03*
X113750000Y-154250000D03*
D15*
%TO.N,-BATT*%
X113750000Y-95000000D03*
X104750000Y-93250000D03*
X115000000Y-93250000D03*
X105000000Y-85500000D03*
X106250000Y-95000000D03*
D14*
%TO.N,Net-(D1-K)*%
X113750000Y-145750000D03*
D16*
X115500000Y-122950000D03*
D14*
X110000000Y-145750000D03*
X113750000Y-148750000D03*
X106000000Y-145750000D03*
X106000000Y-148750000D03*
%TO.N,+BATT*%
X109867609Y-89024278D03*
D15*
X107163688Y-84209078D03*
D16*
%TO.N,Net-(D1-A)*%
X111000000Y-116200000D03*
X111600000Y-122750000D03*
%TD*%
D17*
%TO.N,Net-(D1-K)*%
X115500000Y-122950000D02*
X111950000Y-126500000D01*
X111950000Y-126500000D02*
X110100000Y-126500000D01*
D18*
%TO.N,+BATT*%
X106724777Y-86250000D02*
X105750000Y-86250000D01*
X107163688Y-84209078D02*
X107163688Y-85811089D01*
X107163688Y-85811089D02*
X106724777Y-86250000D01*
X104500000Y-89500000D02*
X105000000Y-90000000D01*
X105000000Y-87000000D02*
X105000000Y-90000000D01*
X105750000Y-86250000D02*
X105000000Y-87000000D01*
D17*
%TO.N,Net-(D1-A)*%
X111600000Y-122750000D02*
X109300000Y-120450000D01*
X109300000Y-120450000D02*
X109300000Y-117900000D01*
X109300000Y-117900000D02*
X111000000Y-116200000D01*
%TD*%
%TA.AperFunction,Conductor*%
%TO.N,-BATT*%
G36*
X110253140Y-82005713D02*
G01*
X110293837Y-82006430D01*
X110295091Y-82006485D01*
X110787192Y-82040896D01*
X110811996Y-82043090D01*
X110853037Y-82046722D01*
X110854188Y-82046853D01*
X111337211Y-82114737D01*
X111407970Y-82126073D01*
X111409185Y-82126299D01*
X111881311Y-82226653D01*
X111955977Y-82244092D01*
X111957131Y-82244392D01*
X112416765Y-82376190D01*
X112483826Y-82396937D01*
X112494299Y-82400177D01*
X112495413Y-82400551D01*
X112940916Y-82562702D01*
X113020366Y-82593576D01*
X113021443Y-82594025D01*
X113451141Y-82785338D01*
X113531587Y-82823332D01*
X113532559Y-82823819D01*
X113944912Y-83043072D01*
X114025403Y-83088289D01*
X114026331Y-83088839D01*
X114356710Y-83295283D01*
X114419750Y-83334675D01*
X114499451Y-83387170D01*
X114500301Y-83387758D01*
X114873387Y-83658821D01*
X114921729Y-83695802D01*
X114951318Y-83718438D01*
X114952180Y-83719129D01*
X115183928Y-83913588D01*
X115303518Y-84013936D01*
X115379295Y-84080886D01*
X115707985Y-84398297D01*
X115780402Y-84472004D01*
X116084803Y-84810076D01*
X116153113Y-84890199D01*
X116331883Y-85119015D01*
X116432120Y-85247312D01*
X116495616Y-85333424D01*
X116748141Y-85707806D01*
X116806230Y-85799483D01*
X117031330Y-86189367D01*
X117083449Y-86286104D01*
X117220890Y-86567900D01*
X117280261Y-86689627D01*
X117325914Y-86790881D01*
X117493724Y-87206224D01*
X117532439Y-87311308D01*
X117670618Y-87736581D01*
X117702032Y-87844850D01*
X117810045Y-88278067D01*
X117833875Y-88388894D01*
X117911325Y-88828136D01*
X117927329Y-88940733D01*
X117973916Y-89383966D01*
X117981960Y-89497724D01*
X117999470Y-89999144D01*
X117999470Y-90000855D01*
X117981960Y-90502273D01*
X117973915Y-90616035D01*
X117927330Y-91059263D01*
X117911324Y-91171867D01*
X117833876Y-91611100D01*
X117810044Y-91721938D01*
X117702034Y-92155141D01*
X117670615Y-92263427D01*
X117532441Y-92688683D01*
X117493719Y-92793786D01*
X117325918Y-93209109D01*
X117280255Y-93310384D01*
X117083454Y-93713884D01*
X117031322Y-93810646D01*
X116806237Y-94200504D01*
X116748130Y-94292209D01*
X116495624Y-94666564D01*
X116432107Y-94752704D01*
X116153123Y-95109787D01*
X116084787Y-95189941D01*
X115780413Y-95527983D01*
X115707966Y-95601720D01*
X115379307Y-95919101D01*
X115303486Y-95986090D01*
X114952194Y-96280857D01*
X114951332Y-96281548D01*
X114873355Y-96341203D01*
X114500356Y-96612201D01*
X114499431Y-96612841D01*
X114419721Y-96665343D01*
X114026383Y-96911127D01*
X114025400Y-96911710D01*
X113944879Y-96956945D01*
X113532623Y-97176144D01*
X113531584Y-97176666D01*
X113451081Y-97214688D01*
X113021461Y-97405965D01*
X113020371Y-97406420D01*
X112940868Y-97437315D01*
X112495456Y-97599431D01*
X112494317Y-97599814D01*
X112416716Y-97623823D01*
X111957160Y-97755598D01*
X111955979Y-97755905D01*
X111881236Y-97773362D01*
X111409208Y-97873694D01*
X111407989Y-97873921D01*
X111337156Y-97885270D01*
X110854274Y-97953134D01*
X110853024Y-97953277D01*
X110787119Y-97959108D01*
X110295116Y-97993511D01*
X110293839Y-97993567D01*
X110233830Y-97994627D01*
X109734500Y-97994627D01*
X109733228Y-97994593D01*
X109691949Y-97992405D01*
X109679981Y-97991771D01*
X109175135Y-97956468D01*
X109173825Y-97956341D01*
X109128443Y-97950705D01*
X108619810Y-97879222D01*
X108618498Y-97879000D01*
X108581869Y-97871799D01*
X108071224Y-97763257D01*
X108069907Y-97762939D01*
X108042986Y-97755641D01*
X107532080Y-97609141D01*
X107530769Y-97608725D01*
X107514451Y-97603038D01*
X107005014Y-97417617D01*
X107003723Y-97417105D01*
X106998960Y-97415059D01*
X106494023Y-97190247D01*
X106492502Y-97189505D01*
X106197369Y-97032580D01*
X106001007Y-96928172D01*
X105999525Y-96927317D01*
X105527464Y-96632341D01*
X105526064Y-96631398D01*
X105075710Y-96304196D01*
X105074363Y-96303144D01*
X104647944Y-95945336D01*
X104646685Y-95944203D01*
X104246237Y-95557496D01*
X104245075Y-95556292D01*
X103872601Y-95142617D01*
X103871504Y-95141309D01*
X103579995Y-94768194D01*
X103528789Y-94702654D01*
X103527811Y-94701309D01*
X103216508Y-94239785D01*
X103215629Y-94238380D01*
X102937290Y-93756281D01*
X102936487Y-93754771D01*
X102692468Y-93254459D01*
X102691778Y-93252911D01*
X102483251Y-92736786D01*
X102482666Y-92735178D01*
X102310648Y-92205763D01*
X102310184Y-92204147D01*
X102175516Y-91664027D01*
X102175162Y-91662360D01*
X102078500Y-91114157D01*
X102078262Y-91112464D01*
X102045914Y-90804702D01*
X102020073Y-90558844D01*
X102019956Y-90557176D01*
X102000529Y-90000830D01*
X102000529Y-90000000D01*
X103294732Y-90000000D01*
X103313777Y-90254151D01*
X103313778Y-90254160D01*
X103370492Y-90502638D01*
X103463608Y-90739891D01*
X103591037Y-90960607D01*
X103591040Y-90960611D01*
X103749945Y-91159872D01*
X103749950Y-91159877D01*
X103936783Y-91333232D01*
X103975405Y-91359563D01*
X103995948Y-91390939D01*
X103996521Y-91394810D01*
X104006051Y-91483444D01*
X104006054Y-91483465D01*
X104017257Y-91534960D01*
X104017263Y-91534980D01*
X104051387Y-91637503D01*
X104051389Y-91637507D01*
X104129176Y-91758545D01*
X104174929Y-91811347D01*
X104249542Y-91876000D01*
X104283664Y-91905567D01*
X104414541Y-91965338D01*
X104444084Y-91974012D01*
X104481568Y-91985020D01*
X104481572Y-91985020D01*
X104481580Y-91985023D01*
X104481584Y-91985024D01*
X104624000Y-92005500D01*
X105869101Y-92005500D01*
X105891014Y-92010673D01*
X106747752Y-92439042D01*
X106857677Y-92478886D01*
X106857680Y-92478886D01*
X106857681Y-92478887D01*
X106913117Y-92491974D01*
X106913125Y-92491975D01*
X106913131Y-92491977D01*
X106913133Y-92491977D01*
X106913137Y-92491978D01*
X106962325Y-92497705D01*
X107029272Y-92505500D01*
X108245500Y-92505500D01*
X108280148Y-92519852D01*
X108294500Y-92554500D01*
X108294500Y-94450227D01*
X108294993Y-94460279D01*
X108294993Y-94460280D01*
X108294996Y-94460313D01*
X108296923Y-94479879D01*
X108296924Y-94479883D01*
X108296924Y-94479885D01*
X108298403Y-94489861D01*
X108319381Y-94595333D01*
X108331084Y-94633908D01*
X108338397Y-94651559D01*
X108357381Y-94687074D01*
X108411583Y-94768194D01*
X108437143Y-94799337D01*
X108437149Y-94799344D01*
X108450654Y-94812849D01*
X108450661Y-94812855D01*
X108481804Y-94838415D01*
X108522362Y-94865514D01*
X108562922Y-94892616D01*
X108598453Y-94911607D01*
X108611828Y-94917146D01*
X108616113Y-94918922D01*
X108616115Y-94918922D01*
X108616116Y-94918923D01*
X108654663Y-94930616D01*
X108654671Y-94930617D01*
X108654677Y-94930619D01*
X108708063Y-94941238D01*
X108760109Y-94951591D01*
X108760110Y-94951592D01*
X108770087Y-94953073D01*
X108770086Y-94953072D01*
X108770092Y-94953073D01*
X108789691Y-94955004D01*
X108799775Y-94955500D01*
X108799783Y-94955500D01*
X110950218Y-94955500D01*
X110950226Y-94955500D01*
X110960311Y-94955004D01*
X110960317Y-94955003D01*
X110960325Y-94955003D01*
X110973219Y-94953731D01*
X110979908Y-94953072D01*
X110983541Y-94952533D01*
X110989876Y-94951594D01*
X111095321Y-94930619D01*
X111095321Y-94930618D01*
X111095336Y-94930616D01*
X111133883Y-94918923D01*
X111151546Y-94911607D01*
X111187077Y-94892616D01*
X111268197Y-94838413D01*
X111299337Y-94812856D01*
X111312856Y-94799337D01*
X111338413Y-94768197D01*
X111392616Y-94687077D01*
X111411607Y-94651546D01*
X111418923Y-94633883D01*
X111430616Y-94595336D01*
X111451593Y-94489882D01*
X111452082Y-94486582D01*
X111453073Y-94479911D01*
X111453072Y-94479911D01*
X111453073Y-94479906D01*
X111455004Y-94460305D01*
X111455500Y-94450223D01*
X111455500Y-92554500D01*
X111469852Y-92519852D01*
X111504500Y-92505500D01*
X111876006Y-92505500D01*
X111936256Y-92499021D01*
X111983456Y-92493947D01*
X112034967Y-92482741D01*
X112137504Y-92448613D01*
X112258543Y-92370825D01*
X112311347Y-92325070D01*
X112405567Y-92216336D01*
X112465338Y-92085459D01*
X112484829Y-92019081D01*
X112485020Y-92018431D01*
X112485020Y-92018428D01*
X112485023Y-92018420D01*
X112485024Y-92018416D01*
X112505500Y-91876000D01*
X112505500Y-90804260D01*
X112519852Y-90769612D01*
X112554500Y-90755260D01*
X112589148Y-90769612D01*
X112602036Y-90792374D01*
X112605118Y-90804702D01*
X112605121Y-90804710D01*
X112605121Y-90804711D01*
X112628504Y-90875547D01*
X112628504Y-90875548D01*
X112642473Y-90909272D01*
X112676031Y-90975901D01*
X112966648Y-91460262D01*
X112984179Y-91485797D01*
X113021881Y-91534084D01*
X113021885Y-91534089D01*
X113042402Y-91557287D01*
X113524560Y-92039444D01*
X113603729Y-92104014D01*
X113645358Y-92131464D01*
X113735893Y-92178797D01*
X113735899Y-92178799D01*
X113735904Y-92178802D01*
X114212446Y-92369419D01*
X114212451Y-92369421D01*
X114229350Y-92375146D01*
X114238231Y-92378155D01*
X114238230Y-92378155D01*
X114269885Y-92387012D01*
X114290115Y-92392673D01*
X114290121Y-92392674D01*
X114290127Y-92392676D01*
X114301425Y-92395190D01*
X114316689Y-92398587D01*
X114316691Y-92398587D01*
X114316692Y-92398588D01*
X114616827Y-92448610D01*
X114897969Y-92495467D01*
X114897971Y-92495467D01*
X114897971Y-92495468D01*
X114975194Y-92502311D01*
X114975195Y-92502311D01*
X115013107Y-92502752D01*
X115013108Y-92502751D01*
X115013116Y-92502752D01*
X115062851Y-92499507D01*
X115090488Y-92497705D01*
X115282593Y-92470260D01*
X115743645Y-92404396D01*
X115852576Y-92376183D01*
X115903822Y-92356603D01*
X116003802Y-92304999D01*
X116252952Y-92138898D01*
X116255560Y-92137384D01*
X116408069Y-92061131D01*
X116408069Y-92061130D01*
X116408075Y-92061128D01*
X116408074Y-92061128D01*
X116477574Y-92019081D01*
X116509801Y-91995853D01*
X116509804Y-91995851D01*
X116571671Y-91943213D01*
X116957580Y-91557305D01*
X116957582Y-91557303D01*
X116957582Y-91557304D01*
X116974323Y-91538822D01*
X116974324Y-91538821D01*
X116977489Y-91534960D01*
X117005641Y-91500622D01*
X117020491Y-91480567D01*
X117220724Y-91180216D01*
X117237486Y-91151041D01*
X117237487Y-91151041D01*
X117266739Y-91091233D01*
X117279489Y-91060064D01*
X117279489Y-91060063D01*
X117380820Y-90756067D01*
X117385320Y-90741025D01*
X117391335Y-90718381D01*
X117394899Y-90703058D01*
X117495723Y-90198941D01*
X117497207Y-90188986D01*
X117499403Y-90174266D01*
X117504269Y-90125117D01*
X117505500Y-90100197D01*
X117505500Y-89799783D01*
X117503605Y-89768876D01*
X117496119Y-89708064D01*
X117490461Y-89677612D01*
X117389518Y-89273846D01*
X117385633Y-89259994D01*
X117379259Y-89239526D01*
X117374596Y-89225928D01*
X117222128Y-88819346D01*
X117217149Y-88807057D01*
X117209250Y-88788945D01*
X117203638Y-88776944D01*
X116711132Y-87791932D01*
X116711129Y-87791926D01*
X116711129Y-87791927D01*
X116669080Y-87722424D01*
X116645853Y-87690199D01*
X116645851Y-87690196D01*
X116593213Y-87628329D01*
X114170123Y-85205239D01*
X114170122Y-85205238D01*
X114170119Y-85205235D01*
X114085985Y-85137434D01*
X114085972Y-85137425D01*
X114041632Y-85108928D01*
X113944982Y-85060549D01*
X113804393Y-85029968D01*
X113804395Y-85029968D01*
X113734703Y-85024984D01*
X113734699Y-85024984D01*
X113591192Y-85035247D01*
X113456377Y-85085531D01*
X113395065Y-85119010D01*
X113279872Y-85205242D01*
X112030235Y-86454880D01*
X111962434Y-86539014D01*
X111962425Y-86539027D01*
X111933928Y-86583367D01*
X111885549Y-86680017D01*
X111854968Y-86820605D01*
X111849984Y-86890297D01*
X111849984Y-86890300D01*
X111860247Y-87033807D01*
X111910531Y-87168622D01*
X111944010Y-87229934D01*
X111944012Y-87229937D01*
X111944015Y-87229942D01*
X112030239Y-87345123D01*
X112030242Y-87345127D01*
X112140636Y-87455521D01*
X112154988Y-87490169D01*
X112140636Y-87524817D01*
X112105988Y-87539169D01*
X112087177Y-87535076D01*
X112087104Y-87535275D01*
X112085724Y-87534760D01*
X112085634Y-87534741D01*
X112085465Y-87534664D01*
X112085466Y-87534664D01*
X112018431Y-87514979D01*
X112018419Y-87514976D01*
X112018416Y-87514976D01*
X112018410Y-87514975D01*
X112018404Y-87514974D01*
X111876004Y-87494500D01*
X111876000Y-87494500D01*
X107029272Y-87494500D01*
X107010202Y-87496720D01*
X106913147Y-87508019D01*
X106913122Y-87508024D01*
X106857690Y-87521109D01*
X106857687Y-87521110D01*
X106747755Y-87560955D01*
X106747750Y-87560957D01*
X105891012Y-87989327D01*
X105869099Y-87994500D01*
X105374500Y-87994500D01*
X105339852Y-87980148D01*
X105325500Y-87945500D01*
X105325500Y-87155122D01*
X105339852Y-87120474D01*
X105870475Y-86589852D01*
X105905123Y-86575500D01*
X106709487Y-86575500D01*
X106711623Y-86575593D01*
X106719677Y-86576297D01*
X106753584Y-86579264D01*
X106794272Y-86568361D01*
X106796351Y-86567900D01*
X106837822Y-86560588D01*
X106844831Y-86556540D01*
X106856648Y-86551646D01*
X106864461Y-86549554D01*
X106898967Y-86525391D01*
X106900742Y-86524260D01*
X106937232Y-86503194D01*
X106964309Y-86470923D01*
X106965742Y-86469359D01*
X107383050Y-86052051D01*
X107384600Y-86050630D01*
X107416882Y-86023544D01*
X107437948Y-85987054D01*
X107439079Y-85985279D01*
X107463242Y-85950773D01*
X107465334Y-85942960D01*
X107470228Y-85931143D01*
X107474276Y-85924134D01*
X107481588Y-85882662D01*
X107482051Y-85880575D01*
X107492951Y-85839898D01*
X107492952Y-85839896D01*
X107489281Y-85797935D01*
X107489188Y-85795799D01*
X107489188Y-84858981D01*
X107503540Y-84824333D01*
X107515417Y-84815594D01*
X107564538Y-84789813D01*
X107564537Y-84789813D01*
X107564540Y-84789812D01*
X107691871Y-84677007D01*
X107788506Y-84537008D01*
X107848828Y-84377950D01*
X107869333Y-84209078D01*
X107848828Y-84040206D01*
X107788506Y-83881148D01*
X107691871Y-83741149D01*
X107564540Y-83628344D01*
X107564532Y-83628340D01*
X107564531Y-83628339D01*
X107413912Y-83549287D01*
X107248744Y-83508578D01*
X107078632Y-83508578D01*
X106913463Y-83549287D01*
X106762844Y-83628339D01*
X106762839Y-83628342D01*
X106762836Y-83628344D01*
X106762834Y-83628346D01*
X106635504Y-83741149D01*
X106538870Y-83881146D01*
X106538869Y-83881148D01*
X106488514Y-84013928D01*
X106478548Y-84040206D01*
X106458043Y-84209078D01*
X106478548Y-84377950D01*
X106478549Y-84377952D01*
X106538869Y-84537007D01*
X106538870Y-84537009D01*
X106635504Y-84677006D01*
X106762837Y-84789813D01*
X106811959Y-84815594D01*
X106835969Y-84844403D01*
X106838188Y-84858981D01*
X106838188Y-85655967D01*
X106823836Y-85690615D01*
X106604303Y-85910148D01*
X106569655Y-85924500D01*
X105765282Y-85924500D01*
X105763146Y-85924407D01*
X105734893Y-85921935D01*
X105721193Y-85920737D01*
X105721192Y-85920737D01*
X105721191Y-85920737D01*
X105680505Y-85931638D01*
X105678430Y-85932098D01*
X105636955Y-85939412D01*
X105636950Y-85939414D01*
X105629945Y-85943458D01*
X105618132Y-85948351D01*
X105610317Y-85950444D01*
X105610317Y-85950445D01*
X105575823Y-85974597D01*
X105574020Y-85975745D01*
X105537545Y-85996805D01*
X105510472Y-86029068D01*
X105509028Y-86030644D01*
X104780648Y-86759025D01*
X104779072Y-86760469D01*
X104746806Y-86787544D01*
X104725743Y-86824024D01*
X104724595Y-86825826D01*
X104700445Y-86860317D01*
X104700444Y-86860317D01*
X104698351Y-86868132D01*
X104693458Y-86879945D01*
X104689414Y-86886950D01*
X104689410Y-86886960D01*
X104682102Y-86928410D01*
X104681639Y-86930497D01*
X104670736Y-86971191D01*
X104670736Y-86971192D01*
X104674407Y-87013152D01*
X104674500Y-87015288D01*
X104674500Y-87945500D01*
X104660148Y-87980148D01*
X104625500Y-87994500D01*
X104623994Y-87994500D01*
X104516557Y-88006051D01*
X104516534Y-88006054D01*
X104465039Y-88017257D01*
X104465019Y-88017263D01*
X104362496Y-88051387D01*
X104362492Y-88051389D01*
X104241454Y-88129176D01*
X104188652Y-88174929D01*
X104094433Y-88283663D01*
X104094431Y-88283666D01*
X104034662Y-88414539D01*
X104014979Y-88481568D01*
X104014974Y-88481595D01*
X103997026Y-88606429D01*
X103977890Y-88638682D01*
X103976128Y-88639941D01*
X103936792Y-88666760D01*
X103936781Y-88666769D01*
X103749950Y-88840122D01*
X103749945Y-88840127D01*
X103591040Y-89039388D01*
X103591037Y-89039392D01*
X103463608Y-89260108D01*
X103370492Y-89497361D01*
X103313778Y-89745839D01*
X103313777Y-89745848D01*
X103294732Y-90000000D01*
X102000529Y-90000000D01*
X102000529Y-89999169D01*
X102019956Y-89442821D01*
X102020072Y-89441157D01*
X102078262Y-88887535D01*
X102078500Y-88885842D01*
X102175162Y-88337639D01*
X102175518Y-88335966D01*
X102188558Y-88283666D01*
X102310185Y-87795845D01*
X102310648Y-87794236D01*
X102482666Y-87264821D01*
X102483251Y-87263213D01*
X102496693Y-87229942D01*
X102691782Y-86747077D01*
X102692462Y-86745553D01*
X102936491Y-86245219D01*
X102937283Y-86243730D01*
X103215637Y-85761606D01*
X103216500Y-85760227D01*
X103527820Y-85298677D01*
X103528779Y-85297358D01*
X103871508Y-84858684D01*
X103872589Y-84857396D01*
X104245089Y-84443693D01*
X104246223Y-84442517D01*
X104646700Y-84055781D01*
X104647923Y-84054681D01*
X105074379Y-83696842D01*
X105075691Y-83695817D01*
X105526083Y-83368587D01*
X105527441Y-83367673D01*
X105999546Y-83072669D01*
X106000996Y-83071833D01*
X106492513Y-82810488D01*
X106494014Y-82809756D01*
X106999115Y-82584871D01*
X107003728Y-82582889D01*
X107004962Y-82582400D01*
X107514550Y-82396925D01*
X107530814Y-82391258D01*
X107532028Y-82390873D01*
X108043082Y-82244330D01*
X108043978Y-82244088D01*
X108069910Y-82237057D01*
X108071174Y-82236752D01*
X108581967Y-82128180D01*
X108618492Y-82120999D01*
X108619770Y-82120783D01*
X109128520Y-82049283D01*
X109142404Y-82047559D01*
X109173844Y-82043655D01*
X109175102Y-82043533D01*
X109680075Y-82008222D01*
X109733224Y-82005406D01*
X109734497Y-82005373D01*
X110233847Y-82005373D01*
X110253140Y-82005713D01*
G37*
%TD.AperFunction*%
%TD*%
%TA.AperFunction,Conductor*%
%TO.N,Net-(LM3401-FB)*%
G36*
X117879711Y-150275185D02*
G01*
X117925466Y-150327989D01*
X117936596Y-150383828D01*
X117930588Y-150555877D01*
X117930286Y-150560195D01*
X117872369Y-151111237D01*
X117871767Y-151115524D01*
X117775558Y-151661154D01*
X117774658Y-151665388D01*
X117640616Y-152203001D01*
X117639423Y-152207162D01*
X117468210Y-152734099D01*
X117466730Y-152738166D01*
X117259172Y-153251891D01*
X117257411Y-153255846D01*
X117014532Y-153753822D01*
X117012499Y-153757645D01*
X116735471Y-154237472D01*
X116733177Y-154241144D01*
X116423341Y-154700493D01*
X116420797Y-154703995D01*
X116079691Y-155140592D01*
X116076908Y-155143908D01*
X115833088Y-155414697D01*
X115706161Y-155555663D01*
X115703163Y-155558769D01*
X115304607Y-155943650D01*
X115301390Y-155946546D01*
X114876941Y-156302701D01*
X114873529Y-156305366D01*
X114425298Y-156631025D01*
X114421709Y-156633446D01*
X113951838Y-156927053D01*
X113948090Y-156929217D01*
X113458880Y-157189335D01*
X113454990Y-157191232D01*
X112948828Y-157416591D01*
X112944814Y-157418213D01*
X112424166Y-157607713D01*
X112420063Y-157609046D01*
X112184579Y-157676570D01*
X111887458Y-157761768D01*
X111883258Y-157762815D01*
X111341303Y-157878011D01*
X111337040Y-157878763D01*
X110788377Y-157955872D01*
X110784072Y-157956325D01*
X110277150Y-157991773D01*
X110238494Y-157994476D01*
X110234548Y-157994613D01*
X110233799Y-157994627D01*
X109735496Y-157994627D01*
X109732215Y-157994540D01*
X109726230Y-157994222D01*
X109680013Y-157991773D01*
X109176161Y-157956540D01*
X109172845Y-157956218D01*
X109128453Y-157950706D01*
X108620829Y-157879365D01*
X108617496Y-157878804D01*
X108581898Y-157871805D01*
X108292097Y-157810206D01*
X108072229Y-157763471D01*
X108068901Y-157762667D01*
X108043030Y-157755653D01*
X107661173Y-157646158D01*
X107533073Y-157609426D01*
X107529774Y-157608379D01*
X107526707Y-157607310D01*
X107514436Y-157603033D01*
X107006020Y-157417983D01*
X107002767Y-157416694D01*
X106999696Y-157415376D01*
X106998990Y-157415072D01*
X106495223Y-157190781D01*
X106491339Y-157188887D01*
X106002157Y-156928784D01*
X105998416Y-156926624D01*
X105528563Y-156633027D01*
X105524980Y-156630610D01*
X105077320Y-156305366D01*
X105076762Y-156304960D01*
X105073375Y-156302315D01*
X104648945Y-155946175D01*
X104645744Y-155943294D01*
X104247190Y-155558416D01*
X104244210Y-155555331D01*
X103873462Y-155143573D01*
X103870702Y-155140283D01*
X103529602Y-154703694D01*
X103527063Y-154700199D01*
X103217246Y-154240879D01*
X103214952Y-154237207D01*
X102937942Y-153757409D01*
X102935909Y-153753587D01*
X102693039Y-153255630D01*
X102691284Y-153251688D01*
X102483739Y-152737995D01*
X102482259Y-152733928D01*
X102311057Y-152207024D01*
X102309864Y-152202863D01*
X102175830Y-151665284D01*
X102174933Y-151661068D01*
X102078726Y-151115445D01*
X102078126Y-151111168D01*
X102020211Y-150560159D01*
X102019911Y-150555869D01*
X102013903Y-150383826D01*
X102031236Y-150316142D01*
X102082411Y-150268572D01*
X102137827Y-150255500D01*
X117812672Y-150255500D01*
X117879711Y-150275185D01*
G37*
%TD.AperFunction*%
%TD*%
%TA.AperFunction,Conductor*%
%TO.N,Net-(LM3401-FB)*%
G36*
X110097111Y-112000976D02*
G01*
X110129108Y-112001541D01*
X110132277Y-112001679D01*
X110623437Y-112036025D01*
X110688267Y-112041761D01*
X110691419Y-112042121D01*
X111173478Y-112109870D01*
X111243302Y-112121056D01*
X111246320Y-112121619D01*
X111717546Y-112221781D01*
X111791326Y-112239014D01*
X111794218Y-112239765D01*
X112252962Y-112371308D01*
X112329682Y-112395043D01*
X112332510Y-112395995D01*
X112635418Y-112506244D01*
X112777132Y-112557825D01*
X112798552Y-112566148D01*
X112855774Y-112588384D01*
X112858484Y-112589513D01*
X113287346Y-112780455D01*
X113367032Y-112818090D01*
X113369576Y-112819366D01*
X113759278Y-113026575D01*
X113781119Y-113038188D01*
X113860867Y-113082987D01*
X113863325Y-113084445D01*
X114255995Y-113329812D01*
X114303998Y-113361430D01*
X114334929Y-113381803D01*
X114337269Y-113383422D01*
X114709608Y-113653943D01*
X114731652Y-113670806D01*
X114786913Y-113713080D01*
X114789055Y-113714798D01*
X115139742Y-114009060D01*
X115215515Y-114076006D01*
X115544205Y-114393417D01*
X115616634Y-114467135D01*
X115921038Y-114805211D01*
X115989343Y-114885329D01*
X116268344Y-115242435D01*
X116331837Y-115328539D01*
X116584368Y-115702932D01*
X116642460Y-115794614D01*
X116867558Y-116184495D01*
X116919677Y-116281231D01*
X117116498Y-116684773D01*
X117162141Y-116786004D01*
X117329958Y-117201367D01*
X117368662Y-117306420D01*
X117442627Y-117534059D01*
X117506848Y-117731712D01*
X117538256Y-117839962D01*
X117594278Y-118064650D01*
X117646279Y-118273215D01*
X117670102Y-118384011D01*
X117747553Y-118823262D01*
X117763557Y-118935854D01*
X117810145Y-119379106D01*
X117818188Y-119492837D01*
X117835652Y-119992962D01*
X117835652Y-119997290D01*
X117818188Y-120497416D01*
X117810145Y-120611147D01*
X117763557Y-121054399D01*
X117747553Y-121166991D01*
X117670102Y-121606242D01*
X117646279Y-121717038D01*
X117538258Y-122150286D01*
X117506848Y-122258541D01*
X117368664Y-122683828D01*
X117329958Y-122788886D01*
X117162141Y-123204249D01*
X117116498Y-123305480D01*
X116919677Y-123709022D01*
X116867558Y-123805758D01*
X116642460Y-124195639D01*
X116584368Y-124287321D01*
X116331837Y-124661714D01*
X116268344Y-124747818D01*
X115989343Y-125104924D01*
X115921038Y-125185042D01*
X115616634Y-125523118D01*
X115544205Y-125596836D01*
X115215515Y-125914247D01*
X115139742Y-125981193D01*
X114789056Y-126275454D01*
X114786873Y-126277203D01*
X114709609Y-126336310D01*
X114337269Y-126606830D01*
X114334930Y-126608449D01*
X114255982Y-126660449D01*
X113863338Y-126905799D01*
X113860849Y-126907274D01*
X113781120Y-126952065D01*
X113369621Y-127170863D01*
X113366991Y-127172182D01*
X113287343Y-127209800D01*
X112858495Y-127400734D01*
X112855733Y-127401885D01*
X112777130Y-127432429D01*
X112761876Y-127437980D01*
X112692147Y-127442408D01*
X112631093Y-127408435D01*
X112598098Y-127346846D01*
X112603639Y-127277197D01*
X112638700Y-127227371D01*
X112678895Y-127192866D01*
X112699928Y-127165691D01*
X112705098Y-127159821D01*
X115643036Y-124221882D01*
X115704357Y-124188399D01*
X115712874Y-124187106D01*
X115717969Y-124186207D01*
X115717977Y-124186207D01*
X115929330Y-124129575D01*
X116127639Y-124037102D01*
X116306877Y-123911598D01*
X116461598Y-123756877D01*
X116587102Y-123577639D01*
X116679575Y-123379330D01*
X116736207Y-123167977D01*
X116755277Y-122950000D01*
X116736207Y-122732023D01*
X116679575Y-122520670D01*
X116587102Y-122322362D01*
X116587100Y-122322359D01*
X116587099Y-122322357D01*
X116461599Y-122143124D01*
X116429010Y-122110535D01*
X116306877Y-121988402D01*
X116127639Y-121862898D01*
X116127640Y-121862898D01*
X116127638Y-121862897D01*
X116028484Y-121816661D01*
X115929330Y-121770425D01*
X115929326Y-121770424D01*
X115929322Y-121770422D01*
X115717977Y-121713793D01*
X115500002Y-121694723D01*
X115499998Y-121694723D01*
X115354682Y-121707436D01*
X115282023Y-121713793D01*
X115282020Y-121713793D01*
X115070677Y-121770422D01*
X115070668Y-121770426D01*
X114872361Y-121862898D01*
X114872357Y-121862900D01*
X114693121Y-121988402D01*
X114538402Y-122143121D01*
X114412900Y-122322357D01*
X114412898Y-122322361D01*
X114320426Y-122520668D01*
X114320423Y-122520674D01*
X114263793Y-122732019D01*
X114262854Y-122737351D01*
X114261235Y-122737065D01*
X114238503Y-122795165D01*
X114228115Y-122806962D01*
X111761952Y-125273126D01*
X111700629Y-125306611D01*
X111630937Y-125301627D01*
X111576417Y-125261607D01*
X111569240Y-125252385D01*
X111555734Y-125236440D01*
X111387704Y-125053912D01*
X111372921Y-125039128D01*
X111342476Y-125011105D01*
X111326535Y-124997604D01*
X111130775Y-124845237D01*
X111113777Y-124833101D01*
X111079139Y-124810469D01*
X111061176Y-124799764D01*
X110842968Y-124681675D01*
X110824176Y-124672489D01*
X110786287Y-124655872D01*
X110766833Y-124648282D01*
X110532202Y-124567734D01*
X110512182Y-124561773D01*
X110512170Y-124561770D01*
X110472075Y-124551615D01*
X110451612Y-124547324D01*
X110206896Y-124506488D01*
X110186155Y-124503903D01*
X110144918Y-124500486D01*
X110124040Y-124499623D01*
X109875960Y-124499623D01*
X109855082Y-124500486D01*
X109813843Y-124503903D01*
X109793102Y-124506488D01*
X109548392Y-124547324D01*
X109548386Y-124547325D01*
X109527929Y-124551614D01*
X109487828Y-124561770D01*
X109467802Y-124567732D01*
X109233156Y-124648286D01*
X109213693Y-124655880D01*
X109175815Y-124672493D01*
X109166214Y-124677186D01*
X109157032Y-124681675D01*
X108938814Y-124799768D01*
X108920842Y-124810479D01*
X108886209Y-124833110D01*
X108869219Y-124845241D01*
X108673464Y-124997604D01*
X108657523Y-125011105D01*
X108627078Y-125039128D01*
X108612295Y-125053912D01*
X108444266Y-125236439D01*
X108430762Y-125252381D01*
X108414616Y-125273126D01*
X108405350Y-125285031D01*
X108393202Y-125302044D01*
X108257499Y-125509751D01*
X108251121Y-125520454D01*
X108246796Y-125527712D01*
X108233628Y-125552047D01*
X108227110Y-125564093D01*
X108217934Y-125582863D01*
X108118281Y-125810051D01*
X108110686Y-125829516D01*
X108097250Y-125868652D01*
X108091286Y-125888685D01*
X108030381Y-126129192D01*
X108026092Y-126149652D01*
X108019282Y-126190464D01*
X108016698Y-126211196D01*
X107996212Y-126458436D01*
X107995348Y-126479317D01*
X107995348Y-126520682D01*
X107996212Y-126541563D01*
X108016698Y-126788799D01*
X108019281Y-126809528D01*
X108026090Y-126850341D01*
X108028893Y-126863711D01*
X108030381Y-126870806D01*
X108091286Y-127111314D01*
X108097250Y-127131347D01*
X108110686Y-127170483D01*
X108115318Y-127182354D01*
X108118282Y-127189950D01*
X108212865Y-127405578D01*
X108217933Y-127417131D01*
X108227108Y-127435901D01*
X108246802Y-127472293D01*
X108257503Y-127490252D01*
X108346772Y-127626889D01*
X108366959Y-127693777D01*
X108347779Y-127760962D01*
X108295321Y-127807113D01*
X108226239Y-127817576D01*
X108217182Y-127815999D01*
X107942872Y-127757692D01*
X107938672Y-127756645D01*
X107719424Y-127693777D01*
X107406058Y-127603920D01*
X107401969Y-127602591D01*
X106881310Y-127413087D01*
X106877302Y-127411468D01*
X106371140Y-127186109D01*
X106367250Y-127184212D01*
X105878040Y-126924094D01*
X105874292Y-126921930D01*
X105404421Y-126628323D01*
X105400832Y-126625902D01*
X104952601Y-126300243D01*
X104949189Y-126297578D01*
X104524740Y-125941423D01*
X104521523Y-125938527D01*
X104122948Y-125553626D01*
X104119982Y-125550555D01*
X103749222Y-125138785D01*
X103746450Y-125135482D01*
X103405328Y-124698865D01*
X103402789Y-124695370D01*
X103200609Y-124395627D01*
X103092948Y-124236013D01*
X103090659Y-124232349D01*
X103069464Y-124195639D01*
X102844367Y-123805758D01*
X102813631Y-123752522D01*
X102811598Y-123748699D01*
X102568713Y-123250710D01*
X102566958Y-123246768D01*
X102477316Y-123024897D01*
X102359399Y-122733041D01*
X102357920Y-122728976D01*
X102281858Y-122494883D01*
X102186704Y-122202030D01*
X102185514Y-122197878D01*
X102063927Y-121710219D01*
X102051471Y-121660262D01*
X102050575Y-121656049D01*
X101954362Y-121110396D01*
X101953761Y-121106114D01*
X101899663Y-120591404D01*
X101895843Y-120555063D01*
X101895544Y-120550785D01*
X101876206Y-119997024D01*
X101876206Y-119995132D01*
X102330784Y-119995132D01*
X102350538Y-120309131D01*
X102350539Y-120309138D01*
X102350540Y-120309142D01*
X102408150Y-120611147D01*
X102409498Y-120618210D01*
X102506725Y-120917443D01*
X102506727Y-120917448D01*
X102640689Y-121202130D01*
X102640692Y-121202136D01*
X102809279Y-121467788D01*
X102809282Y-121467792D01*
X103009834Y-121710217D01*
X103009836Y-121710219D01*
X103239196Y-121925603D01*
X103239206Y-121925611D01*
X103493732Y-122110535D01*
X103493737Y-122110537D01*
X103493744Y-122110543D01*
X103769462Y-122262121D01*
X103769467Y-122262123D01*
X103769469Y-122262124D01*
X103769470Y-122262125D01*
X104061999Y-122377945D01*
X104062002Y-122377946D01*
X104366751Y-122456192D01*
X104366755Y-122456193D01*
X104432238Y-122464465D01*
X104678898Y-122495626D01*
X104678907Y-122495626D01*
X104678910Y-122495627D01*
X104678912Y-122495627D01*
X104993544Y-122495627D01*
X104993546Y-122495627D01*
X104993549Y-122495626D01*
X104993557Y-122495626D01*
X105179821Y-122472095D01*
X105305701Y-122456193D01*
X105610453Y-122377946D01*
X105610456Y-122377945D01*
X105902985Y-122262125D01*
X105902986Y-122262124D01*
X105902984Y-122262124D01*
X105902994Y-122262121D01*
X106178712Y-122110543D01*
X106433258Y-121925605D01*
X106662618Y-121710221D01*
X106863175Y-121467790D01*
X107031765Y-121202134D01*
X107165731Y-120917442D01*
X107262959Y-120618206D01*
X107321916Y-120309142D01*
X107341672Y-119995127D01*
X107341521Y-119992729D01*
X107321917Y-119681122D01*
X107321916Y-119681115D01*
X107321916Y-119681112D01*
X107262959Y-119372048D01*
X107165731Y-119072812D01*
X107031765Y-118788120D01*
X106863175Y-118522464D01*
X106863173Y-118522461D01*
X106662621Y-118280036D01*
X106662619Y-118280034D01*
X106433259Y-118064650D01*
X106433249Y-118064642D01*
X106241701Y-117925474D01*
X108294662Y-117925474D01*
X108296707Y-117941527D01*
X108299003Y-117959560D01*
X108299500Y-117967388D01*
X108299500Y-120437283D01*
X108297243Y-120526362D01*
X108297243Y-120526370D01*
X108308064Y-120586739D01*
X108308718Y-120591404D01*
X108314925Y-120652430D01*
X108314927Y-120652444D01*
X108325208Y-120685213D01*
X108327079Y-120692837D01*
X108333142Y-120726652D01*
X108333142Y-120726655D01*
X108355894Y-120783612D01*
X108357474Y-120788051D01*
X108375841Y-120846588D01*
X108375844Y-120846595D01*
X108392509Y-120876619D01*
X108395879Y-120883714D01*
X108408622Y-120915614D01*
X108408627Y-120915624D01*
X108442377Y-120966833D01*
X108444818Y-120970863D01*
X108474588Y-121024498D01*
X108474589Y-121024499D01*
X108474591Y-121024502D01*
X108496968Y-121050567D01*
X108501693Y-121056835D01*
X108514263Y-121075906D01*
X108520598Y-121085519D01*
X108563978Y-121128899D01*
X108567169Y-121132343D01*
X108607131Y-121178892D01*
X108607130Y-121178892D01*
X108634299Y-121199923D01*
X108640186Y-121205107D01*
X109491362Y-122056282D01*
X110328114Y-122893035D01*
X110361599Y-122954358D01*
X110362899Y-122962910D01*
X110363792Y-122967974D01*
X110420422Y-123179322D01*
X110420424Y-123179326D01*
X110420425Y-123179330D01*
X110432045Y-123204249D01*
X110512897Y-123377638D01*
X110537998Y-123413486D01*
X110638402Y-123556877D01*
X110793123Y-123711598D01*
X110972361Y-123837102D01*
X111170670Y-123929575D01*
X111382023Y-123986207D01*
X111564926Y-124002208D01*
X111599998Y-124005277D01*
X111600000Y-124005277D01*
X111600002Y-124005277D01*
X111628254Y-124002805D01*
X111817977Y-123986207D01*
X112029330Y-123929575D01*
X112227639Y-123837102D01*
X112406877Y-123711598D01*
X112561598Y-123556877D01*
X112687102Y-123377639D01*
X112779575Y-123179330D01*
X112836207Y-122967977D01*
X112855277Y-122750000D01*
X112854170Y-122737351D01*
X112849488Y-122683828D01*
X112836207Y-122532023D01*
X112779575Y-122320670D01*
X112687102Y-122122362D01*
X112687100Y-122122359D01*
X112687099Y-122122357D01*
X112561599Y-121943124D01*
X112544078Y-121925603D01*
X112406877Y-121788402D01*
X112227639Y-121662898D01*
X112227640Y-121662898D01*
X112227638Y-121662897D01*
X112106140Y-121606242D01*
X112029330Y-121570425D01*
X112029327Y-121570424D01*
X112029325Y-121570423D01*
X111817980Y-121513793D01*
X111812649Y-121512854D01*
X111812934Y-121511234D01*
X111754838Y-121488507D01*
X111743036Y-121478115D01*
X110336819Y-120071898D01*
X110303334Y-120010575D01*
X110300500Y-119984217D01*
X110300500Y-118365781D01*
X110320185Y-118298742D01*
X110336815Y-118278104D01*
X111143036Y-117471882D01*
X111204357Y-117438399D01*
X111212874Y-117437106D01*
X111217969Y-117436207D01*
X111217977Y-117436207D01*
X111429330Y-117379575D01*
X111627639Y-117287102D01*
X111806877Y-117161598D01*
X111961598Y-117006877D01*
X112087102Y-116827639D01*
X112179575Y-116629330D01*
X112236207Y-116417977D01*
X112255277Y-116200000D01*
X112236207Y-115982023D01*
X112179575Y-115770670D01*
X112087102Y-115572362D01*
X112087100Y-115572359D01*
X112087099Y-115572357D01*
X111961599Y-115393124D01*
X111897014Y-115328539D01*
X111806877Y-115238402D01*
X111627639Y-115112898D01*
X111627640Y-115112898D01*
X111627638Y-115112897D01*
X111528484Y-115066661D01*
X111429330Y-115020425D01*
X111429326Y-115020424D01*
X111429322Y-115020422D01*
X111217977Y-114963793D01*
X111000002Y-114944723D01*
X110999998Y-114944723D01*
X110854682Y-114957436D01*
X110782023Y-114963793D01*
X110782020Y-114963793D01*
X110570677Y-115020422D01*
X110570668Y-115020426D01*
X110372361Y-115112898D01*
X110372357Y-115112900D01*
X110193121Y-115238402D01*
X110038402Y-115393121D01*
X109912900Y-115572357D01*
X109912898Y-115572361D01*
X109820426Y-115770668D01*
X109820423Y-115770674D01*
X109763793Y-115982019D01*
X109762854Y-115987351D01*
X109761235Y-115987065D01*
X109738503Y-116045165D01*
X109728115Y-116056962D01*
X108601531Y-117183547D01*
X108536946Y-117244942D01*
X108501899Y-117295294D01*
X108499062Y-117299056D01*
X108460302Y-117346592D01*
X108460299Y-117346597D01*
X108444392Y-117377047D01*
X108440324Y-117383761D01*
X108420702Y-117411954D01*
X108396509Y-117468330D01*
X108394488Y-117472584D01*
X108366091Y-117526951D01*
X108366090Y-117526952D01*
X108356640Y-117559975D01*
X108354007Y-117567371D01*
X108340459Y-117598943D01*
X108328113Y-117659019D01*
X108326990Y-117663595D01*
X108310113Y-117722577D01*
X108310113Y-117722579D01*
X108307503Y-117756841D01*
X108306414Y-117764608D01*
X108301664Y-117787730D01*
X108299500Y-117798258D01*
X108299500Y-117859597D01*
X108299321Y-117864306D01*
X108294662Y-117925474D01*
X106241701Y-117925474D01*
X106178723Y-117879718D01*
X106178716Y-117879713D01*
X106178712Y-117879711D01*
X105902994Y-117728133D01*
X105902991Y-117728131D01*
X105902986Y-117728129D01*
X105902985Y-117728128D01*
X105610456Y-117612308D01*
X105610453Y-117612307D01*
X105305704Y-117534061D01*
X105305691Y-117534059D01*
X104993557Y-117494627D01*
X104993546Y-117494627D01*
X104678910Y-117494627D01*
X104678898Y-117494627D01*
X104366764Y-117534059D01*
X104366751Y-117534061D01*
X104062002Y-117612307D01*
X104061999Y-117612308D01*
X103769470Y-117728128D01*
X103769469Y-117728129D01*
X103493744Y-117879711D01*
X103493732Y-117879718D01*
X103239206Y-118064642D01*
X103239196Y-118064650D01*
X103009836Y-118280034D01*
X103009834Y-118280036D01*
X102809282Y-118522461D01*
X102809279Y-118522465D01*
X102640692Y-118788117D01*
X102640689Y-118788123D01*
X102506727Y-119072805D01*
X102506725Y-119072810D01*
X102409498Y-119372043D01*
X102350539Y-119681115D01*
X102350538Y-119681122D01*
X102330784Y-119995121D01*
X102330784Y-119995132D01*
X101876206Y-119995132D01*
X101876206Y-119992729D01*
X101895544Y-119438966D01*
X101895844Y-119434680D01*
X101902428Y-119372043D01*
X101933878Y-119072810D01*
X101953761Y-118883639D01*
X101954363Y-118879352D01*
X102050576Y-118333698D01*
X102051472Y-118329488D01*
X102063803Y-118280034D01*
X102185515Y-117791870D01*
X102186702Y-117787730D01*
X102357923Y-117260768D01*
X102359400Y-117256710D01*
X102397830Y-117161593D01*
X102566963Y-116742971D01*
X102568708Y-116739054D01*
X102811609Y-116241033D01*
X102813631Y-116237231D01*
X103090672Y-115757382D01*
X103092939Y-115753752D01*
X103402789Y-115294383D01*
X103405318Y-115290901D01*
X103746461Y-114854256D01*
X103749210Y-114850981D01*
X104119996Y-114439183D01*
X104122933Y-114436141D01*
X104521544Y-114051207D01*
X104524740Y-114048330D01*
X104803146Y-113814720D01*
X104949197Y-113692168D01*
X104952585Y-113689521D01*
X105400847Y-113363840D01*
X105404408Y-113361438D01*
X105874294Y-113067821D01*
X105878040Y-113065659D01*
X105929705Y-113038188D01*
X106367264Y-112805534D01*
X106371132Y-112803647D01*
X106877320Y-112578277D01*
X106881285Y-112576675D01*
X107401995Y-112387152D01*
X107406032Y-112385840D01*
X107938687Y-112233104D01*
X107942865Y-112232062D01*
X108484838Y-112116863D01*
X108489071Y-112116116D01*
X109037757Y-112039003D01*
X109042049Y-112038551D01*
X109584050Y-112000650D01*
X109588377Y-112000500D01*
X110070065Y-112000500D01*
X110097111Y-112000976D01*
G37*
%TD.AperFunction*%
%TD*%
%TA.AperFunction,Conductor*%
%TO.N,+BATT*%
G36*
X111250000Y-92300000D02*
G01*
X111250000Y-92300003D01*
X111250000Y-94445176D01*
X111249058Y-94454736D01*
X111229065Y-94555244D01*
X111221749Y-94572907D01*
X111167546Y-94654027D01*
X111154027Y-94667546D01*
X111072907Y-94721749D01*
X111055244Y-94729065D01*
X110978331Y-94744364D01*
X110954734Y-94749058D01*
X110945177Y-94750000D01*
X108804823Y-94750000D01*
X108795265Y-94749058D01*
X108766036Y-94743244D01*
X108694755Y-94729065D01*
X108677092Y-94721749D01*
X108595972Y-94667546D01*
X108582453Y-94654027D01*
X108528250Y-94572907D01*
X108520934Y-94555247D01*
X108500940Y-94454726D01*
X108500000Y-94445176D01*
X108500000Y-92300003D01*
X108500000Y-92300000D01*
X108500000Y-91000000D01*
X111250000Y-91000000D01*
X111250000Y-92300000D01*
G37*
%TD.AperFunction*%
%TD*%
%TA.AperFunction,Conductor*%
%TO.N,Net-(LM3401-FB)*%
G36*
X110092927Y-112000903D02*
G01*
X110122222Y-112001420D01*
X110358069Y-112040777D01*
X110592384Y-112121217D01*
X110810263Y-112239127D01*
X111005763Y-112391291D01*
X111173552Y-112573558D01*
X111309052Y-112780956D01*
X111408567Y-113007828D01*
X111469383Y-113247985D01*
X111489841Y-113494877D01*
X111469383Y-113741769D01*
X111408567Y-113981926D01*
X111309052Y-114208798D01*
X111173552Y-114416196D01*
X111005763Y-114598463D01*
X110810263Y-114750627D01*
X110592384Y-114868537D01*
X110358069Y-114948977D01*
X110113710Y-114989754D01*
X109865972Y-114989754D01*
X109621613Y-114948977D01*
X109387298Y-114868537D01*
X109169419Y-114750627D01*
X108973919Y-114598463D01*
X108806130Y-114416196D01*
X108670630Y-114208798D01*
X108571115Y-113981926D01*
X108510299Y-113741769D01*
X108489841Y-113494877D01*
X108510299Y-113247985D01*
X108571115Y-113007828D01*
X108670630Y-112780956D01*
X108806130Y-112573558D01*
X108973919Y-112391291D01*
X109169419Y-112239127D01*
X109387298Y-112121217D01*
X109621613Y-112040777D01*
X109862976Y-112000500D01*
X110070065Y-112000500D01*
X110092927Y-112000903D01*
G37*
%TD.AperFunction*%
%TD*%
%TA.AperFunction,Conductor*%
%TO.N,-BATT*%
G36*
X110253140Y-82005713D02*
G01*
X110293837Y-82006430D01*
X110295091Y-82006485D01*
X110787192Y-82040896D01*
X110811996Y-82043090D01*
X110853037Y-82046722D01*
X110854188Y-82046853D01*
X111337211Y-82114737D01*
X111407970Y-82126073D01*
X111409185Y-82126299D01*
X111881311Y-82226653D01*
X111955977Y-82244092D01*
X111957131Y-82244392D01*
X112416765Y-82376190D01*
X112483826Y-82396937D01*
X112494299Y-82400177D01*
X112495413Y-82400551D01*
X112940916Y-82562702D01*
X113020366Y-82593576D01*
X113021443Y-82594025D01*
X113451141Y-82785338D01*
X113531587Y-82823332D01*
X113532559Y-82823819D01*
X113944912Y-83043072D01*
X114025403Y-83088289D01*
X114026331Y-83088839D01*
X114356710Y-83295283D01*
X114419750Y-83334675D01*
X114499451Y-83387170D01*
X114500301Y-83387758D01*
X114873387Y-83658821D01*
X114921729Y-83695802D01*
X114951318Y-83718438D01*
X114952180Y-83719129D01*
X115183928Y-83913588D01*
X115303518Y-84013936D01*
X115379295Y-84080886D01*
X115707985Y-84398297D01*
X115780402Y-84472004D01*
X116084803Y-84810076D01*
X116153113Y-84890199D01*
X116331883Y-85119015D01*
X116432120Y-85247312D01*
X116495616Y-85333424D01*
X116748141Y-85707806D01*
X116806230Y-85799483D01*
X117031330Y-86189367D01*
X117083449Y-86286104D01*
X117220890Y-86567900D01*
X117280261Y-86689627D01*
X117325914Y-86790881D01*
X117493724Y-87206224D01*
X117532439Y-87311308D01*
X117670618Y-87736581D01*
X117702032Y-87844850D01*
X117810045Y-88278067D01*
X117833875Y-88388894D01*
X117911325Y-88828136D01*
X117927329Y-88940733D01*
X117973916Y-89383966D01*
X117981960Y-89497724D01*
X117999470Y-89999144D01*
X117999470Y-90000855D01*
X117981960Y-90502273D01*
X117973915Y-90616035D01*
X117927330Y-91059263D01*
X117911324Y-91171867D01*
X117833876Y-91611100D01*
X117810044Y-91721938D01*
X117702034Y-92155141D01*
X117670615Y-92263427D01*
X117532441Y-92688683D01*
X117493719Y-92793786D01*
X117325918Y-93209109D01*
X117280255Y-93310384D01*
X117083454Y-93713884D01*
X117031322Y-93810646D01*
X116806237Y-94200504D01*
X116748130Y-94292209D01*
X116495624Y-94666564D01*
X116432107Y-94752704D01*
X116153123Y-95109787D01*
X116084787Y-95189941D01*
X115780413Y-95527983D01*
X115707966Y-95601720D01*
X115379307Y-95919101D01*
X115303486Y-95986090D01*
X114952194Y-96280857D01*
X114951332Y-96281548D01*
X114873355Y-96341203D01*
X114500356Y-96612201D01*
X114499431Y-96612841D01*
X114419721Y-96665343D01*
X114026383Y-96911127D01*
X114025400Y-96911710D01*
X113944879Y-96956945D01*
X113532623Y-97176144D01*
X113531584Y-97176666D01*
X113451081Y-97214688D01*
X113021461Y-97405965D01*
X113020371Y-97406420D01*
X112940868Y-97437315D01*
X112495456Y-97599431D01*
X112494317Y-97599814D01*
X112416716Y-97623823D01*
X111957160Y-97755598D01*
X111955979Y-97755905D01*
X111881236Y-97773362D01*
X111409208Y-97873694D01*
X111407989Y-97873921D01*
X111337156Y-97885270D01*
X110854274Y-97953134D01*
X110853024Y-97953277D01*
X110787119Y-97959108D01*
X110295116Y-97993511D01*
X110293839Y-97993567D01*
X110233830Y-97994627D01*
X109734500Y-97994627D01*
X109733228Y-97994593D01*
X109691949Y-97992405D01*
X109679981Y-97991771D01*
X109175135Y-97956468D01*
X109173825Y-97956341D01*
X109128443Y-97950705D01*
X108619810Y-97879222D01*
X108618498Y-97879000D01*
X108581869Y-97871799D01*
X108071224Y-97763257D01*
X108069907Y-97762939D01*
X108042986Y-97755641D01*
X107532080Y-97609141D01*
X107530769Y-97608725D01*
X107514451Y-97603038D01*
X107005014Y-97417617D01*
X107003723Y-97417105D01*
X106998960Y-97415059D01*
X106494023Y-97190247D01*
X106492502Y-97189505D01*
X106197369Y-97032580D01*
X106001007Y-96928172D01*
X105999525Y-96927317D01*
X105527464Y-96632341D01*
X105526064Y-96631398D01*
X105075710Y-96304196D01*
X105074363Y-96303144D01*
X104647944Y-95945336D01*
X104646685Y-95944203D01*
X104246237Y-95557496D01*
X104245075Y-95556292D01*
X103872601Y-95142617D01*
X103871504Y-95141309D01*
X103579995Y-94768194D01*
X103528789Y-94702654D01*
X103527811Y-94701309D01*
X103216508Y-94239785D01*
X103215629Y-94238380D01*
X102937290Y-93756281D01*
X102936487Y-93754771D01*
X102692468Y-93254459D01*
X102691778Y-93252911D01*
X102483251Y-92736786D01*
X102482666Y-92735178D01*
X102310648Y-92205763D01*
X102310184Y-92204147D01*
X102175516Y-91664027D01*
X102175162Y-91662360D01*
X102078500Y-91114157D01*
X102078262Y-91112464D01*
X102045914Y-90804702D01*
X102020073Y-90558844D01*
X102019956Y-90557176D01*
X102000529Y-90000830D01*
X102000529Y-90000000D01*
X103294732Y-90000000D01*
X103313777Y-90254151D01*
X103313778Y-90254160D01*
X103370492Y-90502638D01*
X103463608Y-90739891D01*
X103591037Y-90960607D01*
X103591040Y-90960611D01*
X103749945Y-91159872D01*
X103749950Y-91159877D01*
X103936783Y-91333232D01*
X103975405Y-91359563D01*
X103995948Y-91390939D01*
X103996521Y-91394810D01*
X104006051Y-91483444D01*
X104006054Y-91483465D01*
X104017257Y-91534960D01*
X104017263Y-91534980D01*
X104051387Y-91637503D01*
X104051389Y-91637507D01*
X104129176Y-91758545D01*
X104174929Y-91811347D01*
X104249542Y-91876000D01*
X104283664Y-91905567D01*
X104414541Y-91965338D01*
X104444084Y-91974012D01*
X104481568Y-91985020D01*
X104481572Y-91985020D01*
X104481580Y-91985023D01*
X104481584Y-91985024D01*
X104624000Y-92005500D01*
X105869101Y-92005500D01*
X105891014Y-92010673D01*
X106747752Y-92439042D01*
X106857677Y-92478886D01*
X106857680Y-92478886D01*
X106857681Y-92478887D01*
X106913117Y-92491974D01*
X106913125Y-92491975D01*
X106913131Y-92491977D01*
X106913133Y-92491977D01*
X106913137Y-92491978D01*
X106962325Y-92497705D01*
X107029272Y-92505500D01*
X108245500Y-92505500D01*
X108280148Y-92519852D01*
X108294500Y-92554500D01*
X108294500Y-94450227D01*
X108294993Y-94460279D01*
X108294993Y-94460280D01*
X108294996Y-94460313D01*
X108296923Y-94479879D01*
X108296924Y-94479883D01*
X108296924Y-94479885D01*
X108298403Y-94489861D01*
X108319381Y-94595333D01*
X108331084Y-94633908D01*
X108338397Y-94651559D01*
X108357381Y-94687074D01*
X108411583Y-94768194D01*
X108437143Y-94799337D01*
X108437149Y-94799344D01*
X108450654Y-94812849D01*
X108450661Y-94812855D01*
X108481804Y-94838415D01*
X108522362Y-94865514D01*
X108562922Y-94892616D01*
X108598453Y-94911607D01*
X108611828Y-94917146D01*
X108616113Y-94918922D01*
X108616115Y-94918922D01*
X108616116Y-94918923D01*
X108654663Y-94930616D01*
X108654671Y-94930617D01*
X108654677Y-94930619D01*
X108708063Y-94941238D01*
X108760109Y-94951591D01*
X108760110Y-94951592D01*
X108770087Y-94953073D01*
X108770086Y-94953072D01*
X108770092Y-94953073D01*
X108789691Y-94955004D01*
X108799775Y-94955500D01*
X108799783Y-94955500D01*
X110950218Y-94955500D01*
X110950226Y-94955500D01*
X110960311Y-94955004D01*
X110960317Y-94955003D01*
X110960325Y-94955003D01*
X110973219Y-94953731D01*
X110979908Y-94953072D01*
X110983541Y-94952533D01*
X110989876Y-94951594D01*
X111095321Y-94930619D01*
X111095321Y-94930618D01*
X111095336Y-94930616D01*
X111133883Y-94918923D01*
X111151546Y-94911607D01*
X111187077Y-94892616D01*
X111268197Y-94838413D01*
X111299337Y-94812856D01*
X111312856Y-94799337D01*
X111338413Y-94768197D01*
X111392616Y-94687077D01*
X111411607Y-94651546D01*
X111418923Y-94633883D01*
X111430616Y-94595336D01*
X111451593Y-94489882D01*
X111452082Y-94486582D01*
X111453073Y-94479911D01*
X111453072Y-94479911D01*
X111453073Y-94479906D01*
X111455004Y-94460305D01*
X111455500Y-94450223D01*
X111455500Y-92554500D01*
X111469852Y-92519852D01*
X111504500Y-92505500D01*
X111876006Y-92505500D01*
X111936256Y-92499021D01*
X111983456Y-92493947D01*
X112034967Y-92482741D01*
X112137504Y-92448613D01*
X112258543Y-92370825D01*
X112311347Y-92325070D01*
X112405567Y-92216336D01*
X112465338Y-92085459D01*
X112484829Y-92019081D01*
X112485020Y-92018431D01*
X112485020Y-92018428D01*
X112485023Y-92018420D01*
X112485024Y-92018416D01*
X112505500Y-91876000D01*
X112505500Y-90804260D01*
X112519852Y-90769612D01*
X112554500Y-90755260D01*
X112589148Y-90769612D01*
X112602036Y-90792374D01*
X112605118Y-90804702D01*
X112605121Y-90804710D01*
X112605121Y-90804711D01*
X112628504Y-90875547D01*
X112628504Y-90875548D01*
X112642473Y-90909272D01*
X112676031Y-90975901D01*
X112966648Y-91460262D01*
X112984179Y-91485797D01*
X113021881Y-91534084D01*
X113021885Y-91534089D01*
X113042402Y-91557287D01*
X113524560Y-92039444D01*
X113603729Y-92104014D01*
X113645358Y-92131464D01*
X113735893Y-92178797D01*
X113735899Y-92178799D01*
X113735904Y-92178802D01*
X114212446Y-92369419D01*
X114212451Y-92369421D01*
X114229350Y-92375146D01*
X114238231Y-92378155D01*
X114238230Y-92378155D01*
X114269885Y-92387012D01*
X114290115Y-92392673D01*
X114290121Y-92392674D01*
X114290127Y-92392676D01*
X114301425Y-92395190D01*
X114316689Y-92398587D01*
X114316691Y-92398587D01*
X114316692Y-92398588D01*
X114616827Y-92448610D01*
X114897969Y-92495467D01*
X114897971Y-92495467D01*
X114897971Y-92495468D01*
X114975194Y-92502311D01*
X114975195Y-92502311D01*
X115013107Y-92502752D01*
X115013108Y-92502751D01*
X115013116Y-92502752D01*
X115062851Y-92499507D01*
X115090488Y-92497705D01*
X115282593Y-92470260D01*
X115743645Y-92404396D01*
X115852576Y-92376183D01*
X115903822Y-92356603D01*
X116003802Y-92304999D01*
X116252952Y-92138898D01*
X116255560Y-92137384D01*
X116408069Y-92061131D01*
X116408069Y-92061130D01*
X116408075Y-92061128D01*
X116408074Y-92061128D01*
X116477574Y-92019081D01*
X116509801Y-91995853D01*
X116509804Y-91995851D01*
X116571671Y-91943213D01*
X116957580Y-91557305D01*
X116957582Y-91557303D01*
X116957582Y-91557304D01*
X116974323Y-91538822D01*
X116974324Y-91538821D01*
X116977489Y-91534960D01*
X117005641Y-91500622D01*
X117020491Y-91480567D01*
X117220724Y-91180216D01*
X117237486Y-91151041D01*
X117237487Y-91151041D01*
X117266739Y-91091233D01*
X117279489Y-91060064D01*
X117279489Y-91060063D01*
X117380820Y-90756067D01*
X117385320Y-90741025D01*
X117391335Y-90718381D01*
X117394899Y-90703058D01*
X117495723Y-90198941D01*
X117497207Y-90188986D01*
X117499403Y-90174266D01*
X117504269Y-90125117D01*
X117505500Y-90100197D01*
X117505500Y-89799783D01*
X117503605Y-89768876D01*
X117496119Y-89708064D01*
X117490461Y-89677612D01*
X117389518Y-89273846D01*
X117385633Y-89259994D01*
X117379259Y-89239526D01*
X117374596Y-89225928D01*
X117222128Y-88819346D01*
X117217149Y-88807057D01*
X117209250Y-88788945D01*
X117203638Y-88776944D01*
X116711132Y-87791932D01*
X116711129Y-87791926D01*
X116711129Y-87791927D01*
X116669080Y-87722424D01*
X116645853Y-87690199D01*
X116645851Y-87690196D01*
X116593213Y-87628329D01*
X114170123Y-85205239D01*
X114170122Y-85205238D01*
X114170119Y-85205235D01*
X114085985Y-85137434D01*
X114085972Y-85137425D01*
X114041632Y-85108928D01*
X113944982Y-85060549D01*
X113804393Y-85029968D01*
X113804395Y-85029968D01*
X113734703Y-85024984D01*
X113734699Y-85024984D01*
X113591192Y-85035247D01*
X113456377Y-85085531D01*
X113395065Y-85119010D01*
X113279872Y-85205242D01*
X112030235Y-86454880D01*
X111962434Y-86539014D01*
X111962425Y-86539027D01*
X111933928Y-86583367D01*
X111885549Y-86680017D01*
X111854968Y-86820605D01*
X111849984Y-86890297D01*
X111849984Y-86890300D01*
X111860247Y-87033807D01*
X111910531Y-87168622D01*
X111944010Y-87229934D01*
X111944012Y-87229937D01*
X111944015Y-87229942D01*
X112030239Y-87345123D01*
X112030242Y-87345127D01*
X112140636Y-87455521D01*
X112154988Y-87490169D01*
X112140636Y-87524817D01*
X112105988Y-87539169D01*
X112087177Y-87535076D01*
X112087104Y-87535275D01*
X112085724Y-87534760D01*
X112085634Y-87534741D01*
X112085465Y-87534664D01*
X112085466Y-87534664D01*
X112018431Y-87514979D01*
X112018419Y-87514976D01*
X112018416Y-87514976D01*
X112018410Y-87514975D01*
X112018404Y-87514974D01*
X111876004Y-87494500D01*
X111876000Y-87494500D01*
X107029272Y-87494500D01*
X107010202Y-87496720D01*
X106913147Y-87508019D01*
X106913122Y-87508024D01*
X106857690Y-87521109D01*
X106857687Y-87521110D01*
X106747755Y-87560955D01*
X106747750Y-87560957D01*
X105891012Y-87989327D01*
X105869099Y-87994500D01*
X105374500Y-87994500D01*
X105339852Y-87980148D01*
X105325500Y-87945500D01*
X105325500Y-87155122D01*
X105339852Y-87120474D01*
X105870475Y-86589852D01*
X105905123Y-86575500D01*
X106709487Y-86575500D01*
X106711623Y-86575593D01*
X106719677Y-86576297D01*
X106753584Y-86579264D01*
X106794272Y-86568361D01*
X106796351Y-86567900D01*
X106837822Y-86560588D01*
X106844831Y-86556540D01*
X106856648Y-86551646D01*
X106864461Y-86549554D01*
X106898967Y-86525391D01*
X106900742Y-86524260D01*
X106937232Y-86503194D01*
X106964309Y-86470923D01*
X106965742Y-86469359D01*
X107383050Y-86052051D01*
X107384600Y-86050630D01*
X107416882Y-86023544D01*
X107437948Y-85987054D01*
X107439079Y-85985279D01*
X107463242Y-85950773D01*
X107465334Y-85942960D01*
X107470228Y-85931143D01*
X107474276Y-85924134D01*
X107481588Y-85882662D01*
X107482051Y-85880575D01*
X107492951Y-85839898D01*
X107492952Y-85839896D01*
X107489281Y-85797935D01*
X107489188Y-85795799D01*
X107489188Y-84858981D01*
X107503540Y-84824333D01*
X107515417Y-84815594D01*
X107564538Y-84789813D01*
X107564537Y-84789813D01*
X107564540Y-84789812D01*
X107691871Y-84677007D01*
X107788506Y-84537008D01*
X107848828Y-84377950D01*
X107869333Y-84209078D01*
X107848828Y-84040206D01*
X107788506Y-83881148D01*
X107691871Y-83741149D01*
X107564540Y-83628344D01*
X107564532Y-83628340D01*
X107564531Y-83628339D01*
X107413912Y-83549287D01*
X107248744Y-83508578D01*
X107078632Y-83508578D01*
X106913463Y-83549287D01*
X106762844Y-83628339D01*
X106762839Y-83628342D01*
X106762836Y-83628344D01*
X106762834Y-83628346D01*
X106635504Y-83741149D01*
X106538870Y-83881146D01*
X106538869Y-83881148D01*
X106488514Y-84013928D01*
X106478548Y-84040206D01*
X106458043Y-84209078D01*
X106478548Y-84377950D01*
X106478549Y-84377952D01*
X106538869Y-84537007D01*
X106538870Y-84537009D01*
X106635504Y-84677006D01*
X106762837Y-84789813D01*
X106811959Y-84815594D01*
X106835969Y-84844403D01*
X106838188Y-84858981D01*
X106838188Y-85655967D01*
X106823836Y-85690615D01*
X106604303Y-85910148D01*
X106569655Y-85924500D01*
X105765282Y-85924500D01*
X105763146Y-85924407D01*
X105734893Y-85921935D01*
X105721193Y-85920737D01*
X105721192Y-85920737D01*
X105721191Y-85920737D01*
X105680505Y-85931638D01*
X105678430Y-85932098D01*
X105636955Y-85939412D01*
X105636950Y-85939414D01*
X105629945Y-85943458D01*
X105618132Y-85948351D01*
X105610317Y-85950444D01*
X105610317Y-85950445D01*
X105575823Y-85974597D01*
X105574020Y-85975745D01*
X105537545Y-85996805D01*
X105510472Y-86029068D01*
X105509028Y-86030644D01*
X104780648Y-86759025D01*
X104779072Y-86760469D01*
X104746806Y-86787544D01*
X104725743Y-86824024D01*
X104724595Y-86825826D01*
X104700445Y-86860317D01*
X104700444Y-86860317D01*
X104698351Y-86868132D01*
X104693458Y-86879945D01*
X104689414Y-86886950D01*
X104689410Y-86886960D01*
X104682102Y-86928410D01*
X104681639Y-86930497D01*
X104670736Y-86971191D01*
X104670736Y-86971192D01*
X104674407Y-87013152D01*
X104674500Y-87015288D01*
X104674500Y-87945500D01*
X104660148Y-87980148D01*
X104625500Y-87994500D01*
X104623994Y-87994500D01*
X104516557Y-88006051D01*
X104516534Y-88006054D01*
X104465039Y-88017257D01*
X104465019Y-88017263D01*
X104362496Y-88051387D01*
X104362492Y-88051389D01*
X104241454Y-88129176D01*
X104188652Y-88174929D01*
X104094433Y-88283663D01*
X104094431Y-88283666D01*
X104034662Y-88414539D01*
X104014979Y-88481568D01*
X104014974Y-88481595D01*
X103997026Y-88606429D01*
X103977890Y-88638682D01*
X103976128Y-88639941D01*
X103936792Y-88666760D01*
X103936781Y-88666769D01*
X103749950Y-88840122D01*
X103749945Y-88840127D01*
X103591040Y-89039388D01*
X103591037Y-89039392D01*
X103463608Y-89260108D01*
X103370492Y-89497361D01*
X103313778Y-89745839D01*
X103313777Y-89745848D01*
X103294732Y-90000000D01*
X102000529Y-90000000D01*
X102000529Y-89999169D01*
X102019956Y-89442821D01*
X102020072Y-89441157D01*
X102078262Y-88887535D01*
X102078500Y-88885842D01*
X102175162Y-88337639D01*
X102175518Y-88335966D01*
X102188558Y-88283666D01*
X102310185Y-87795845D01*
X102310648Y-87794236D01*
X102482666Y-87264821D01*
X102483251Y-87263213D01*
X102496693Y-87229942D01*
X102691782Y-86747077D01*
X102692462Y-86745553D01*
X102936491Y-86245219D01*
X102937283Y-86243730D01*
X103215637Y-85761606D01*
X103216500Y-85760227D01*
X103527820Y-85298677D01*
X103528779Y-85297358D01*
X103871508Y-84858684D01*
X103872589Y-84857396D01*
X104245089Y-84443693D01*
X104246223Y-84442517D01*
X104646700Y-84055781D01*
X104647923Y-84054681D01*
X105074379Y-83696842D01*
X105075691Y-83695817D01*
X105526083Y-83368587D01*
X105527441Y-83367673D01*
X105999546Y-83072669D01*
X106000996Y-83071833D01*
X106492513Y-82810488D01*
X106494014Y-82809756D01*
X106999115Y-82584871D01*
X107003728Y-82582889D01*
X107004962Y-82582400D01*
X107514550Y-82396925D01*
X107530814Y-82391258D01*
X107532028Y-82390873D01*
X108043082Y-82244330D01*
X108043978Y-82244088D01*
X108069910Y-82237057D01*
X108071174Y-82236752D01*
X108581967Y-82128180D01*
X108618492Y-82120999D01*
X108619770Y-82120783D01*
X109128520Y-82049283D01*
X109142404Y-82047559D01*
X109173844Y-82043655D01*
X109175102Y-82043533D01*
X109680075Y-82008222D01*
X109733224Y-82005406D01*
X109734497Y-82005373D01*
X110233847Y-82005373D01*
X110253140Y-82005713D01*
G37*
%TD.AperFunction*%
%TD*%
%TA.AperFunction,Conductor*%
%TO.N,Net-(D1-K)*%
G36*
X110238073Y-142005447D02*
G01*
X110292906Y-142006415D01*
X110296046Y-142006552D01*
X110775617Y-142040087D01*
X110780152Y-142040573D01*
X111115833Y-142089190D01*
X111337180Y-142121248D01*
X111341184Y-142121963D01*
X111883258Y-142237184D01*
X111887450Y-142238229D01*
X112420089Y-142390961D01*
X112424143Y-142392278D01*
X112944835Y-142581794D01*
X112948819Y-142583404D01*
X112952246Y-142584930D01*
X113454990Y-142808767D01*
X113458880Y-142810664D01*
X113948090Y-143070782D01*
X113951838Y-143072946D01*
X114421709Y-143366553D01*
X114425296Y-143368972D01*
X114803889Y-143644037D01*
X114873529Y-143694633D01*
X114876941Y-143697298D01*
X115301081Y-144053194D01*
X115304870Y-144056650D01*
X115304934Y-144056713D01*
X115500000Y-144250000D01*
X115650339Y-144391538D01*
X115702855Y-144440979D01*
X115706432Y-144444637D01*
X116076908Y-144856091D01*
X116079682Y-144859397D01*
X116420797Y-145296004D01*
X116423341Y-145299506D01*
X116733177Y-145758855D01*
X116735471Y-145762527D01*
X117012499Y-146242354D01*
X117014532Y-146246177D01*
X117257411Y-146744153D01*
X117259172Y-146748108D01*
X117466730Y-147261833D01*
X117468210Y-147265900D01*
X117639423Y-147792837D01*
X117640616Y-147796998D01*
X117774658Y-148334611D01*
X117775558Y-148338845D01*
X117871767Y-148884475D01*
X117872369Y-148888762D01*
X117930512Y-149441949D01*
X117965874Y-149598715D01*
X117961423Y-149668443D01*
X117919981Y-149724695D01*
X117854706Y-149749613D01*
X117844913Y-149750000D01*
X102137635Y-149750000D01*
X102070596Y-149730315D01*
X102024841Y-149677511D01*
X102013711Y-149621673D01*
X102014513Y-149598715D01*
X102019911Y-149444128D01*
X102020211Y-149439840D01*
X102078126Y-148888831D01*
X102078725Y-148884558D01*
X102174934Y-148338925D01*
X102175830Y-148334715D01*
X102309864Y-147797136D01*
X102311052Y-147792991D01*
X102482262Y-147266062D01*
X102483739Y-147262004D01*
X102483741Y-147262000D01*
X102691289Y-146748297D01*
X102693034Y-146744380D01*
X102935920Y-146246391D01*
X102937942Y-146242590D01*
X102984185Y-146162492D01*
X103214965Y-145762770D01*
X103217232Y-145759141D01*
X103527063Y-145299800D01*
X103529592Y-145296318D01*
X103870713Y-144859701D01*
X103873450Y-144856440D01*
X104244224Y-144444653D01*
X104247176Y-144441597D01*
X104645760Y-144056690D01*
X104648928Y-144053837D01*
X105073392Y-143697670D01*
X105076743Y-143695052D01*
X105524995Y-143369378D01*
X105528543Y-143366984D01*
X105998437Y-143073362D01*
X106002135Y-143071227D01*
X106491362Y-142811100D01*
X106495209Y-142809224D01*
X106998996Y-142584924D01*
X107002769Y-142583302D01*
X107005962Y-142582036D01*
X107514538Y-142396929D01*
X107529829Y-142391601D01*
X107533019Y-142390589D01*
X108043058Y-142244337D01*
X108068932Y-142237323D01*
X108072152Y-142236544D01*
X108581919Y-142128190D01*
X108617526Y-142121189D01*
X108620761Y-142120644D01*
X109128580Y-142049275D01*
X109172829Y-142043781D01*
X109176094Y-142043464D01*
X109680094Y-142008220D01*
X109729228Y-142005617D01*
X109732205Y-142005460D01*
X109735486Y-142005373D01*
X110233838Y-142005373D01*
X110238073Y-142005447D01*
G37*
%TD.AperFunction*%
%TD*%
%TA.AperFunction,Conductor*%
%TO.N,+BATT*%
G36*
X111943039Y-88019685D02*
G01*
X111988794Y-88072489D01*
X112000000Y-88124000D01*
X112000000Y-91876000D01*
X111980315Y-91943039D01*
X111927511Y-91988794D01*
X111876000Y-92000000D01*
X111250000Y-92000000D01*
X111250000Y-91000000D01*
X108500000Y-91000000D01*
X108500000Y-92000000D01*
X107029272Y-92000000D01*
X106973818Y-91986909D01*
X106000000Y-91500000D01*
X104624000Y-91500000D01*
X104556961Y-91480315D01*
X104511206Y-91427511D01*
X104500000Y-91376000D01*
X104500000Y-88624000D01*
X104519685Y-88556961D01*
X104572489Y-88511206D01*
X104624000Y-88500000D01*
X106000000Y-88500000D01*
X106973818Y-88013090D01*
X107029272Y-88000000D01*
X111876000Y-88000000D01*
X111943039Y-88019685D01*
G37*
%TD.AperFunction*%
%TD*%
%TA.AperFunction,Conductor*%
%TO.N,Net-(LM3401-FB)*%
G36*
X113768334Y-85534180D02*
G01*
X113812681Y-85562681D01*
X116235771Y-87985771D01*
X116258999Y-88017998D01*
X116748542Y-88997085D01*
X116751142Y-89003047D01*
X116898758Y-89396690D01*
X116900856Y-89403427D01*
X116996298Y-89785191D01*
X117000000Y-89815266D01*
X117000000Y-90087722D01*
X116997592Y-90112041D01*
X116900758Y-90596209D01*
X116898778Y-90603663D01*
X116805251Y-90884247D01*
X116790788Y-90913818D01*
X116606810Y-91189785D01*
X116591317Y-91208683D01*
X116214229Y-91585771D01*
X116182002Y-91608999D01*
X116000003Y-91699998D01*
X115999993Y-91700004D01*
X115723402Y-91884397D01*
X115672156Y-91903977D01*
X115018994Y-91997286D01*
X114981073Y-91996845D01*
X114413220Y-91902203D01*
X114387553Y-91895021D01*
X113923631Y-91709452D01*
X113882002Y-91682002D01*
X113410794Y-91210794D01*
X113392146Y-91186910D01*
X113109494Y-90715823D01*
X113095525Y-90682100D01*
X113003702Y-90314808D01*
X113000000Y-90284734D01*
X113000000Y-89812278D01*
X113002408Y-89787960D01*
X113002962Y-89785191D01*
X113095788Y-89321056D01*
X113111047Y-89281587D01*
X113392148Y-88813085D01*
X113410794Y-88789206D01*
X113800000Y-88400000D01*
X112387681Y-86987681D01*
X112354196Y-86926358D01*
X112359180Y-86856666D01*
X112387681Y-86812319D01*
X113637319Y-85562681D01*
X113698642Y-85529196D01*
X113768334Y-85534180D01*
G37*
%TD.AperFunction*%
%TD*%
%TA.AperFunction,Conductor*%
%TO.N,Net-(D1-K)*%
G36*
X110134002Y-125006814D02*
G01*
X110358098Y-125044209D01*
X110377946Y-125049236D01*
X110592823Y-125123003D01*
X110611573Y-125131226D01*
X110811388Y-125239361D01*
X110828532Y-125250563D01*
X111007809Y-125390100D01*
X111022877Y-125403970D01*
X111176750Y-125571120D01*
X111189329Y-125587281D01*
X111313592Y-125777479D01*
X111323339Y-125795491D01*
X111414597Y-126003539D01*
X111421247Y-126022909D01*
X111477020Y-126243152D01*
X111480390Y-126263352D01*
X111499151Y-126489760D01*
X111499151Y-126510240D01*
X111480390Y-126736647D01*
X111477020Y-126756847D01*
X111421247Y-126977090D01*
X111414597Y-126996460D01*
X111323339Y-127204508D01*
X111313592Y-127222520D01*
X111189329Y-127412718D01*
X111176750Y-127428879D01*
X111022877Y-127596029D01*
X111007809Y-127609899D01*
X110828532Y-127749436D01*
X110811388Y-127760638D01*
X110611578Y-127868770D01*
X110592823Y-127876996D01*
X110377949Y-127950762D01*
X110358096Y-127955790D01*
X110185738Y-127984551D01*
X110179856Y-127985246D01*
X110132337Y-127988570D01*
X110129106Y-127988711D01*
X110070971Y-127989737D01*
X110070051Y-127989754D01*
X109855709Y-127989754D01*
X109835300Y-127988063D01*
X109796741Y-127981628D01*
X109641903Y-127955790D01*
X109622050Y-127950762D01*
X109407176Y-127876996D01*
X109388421Y-127868770D01*
X109188611Y-127760638D01*
X109171467Y-127749436D01*
X108992190Y-127609899D01*
X108977122Y-127596029D01*
X108823249Y-127428879D01*
X108810670Y-127412718D01*
X108686407Y-127222520D01*
X108676660Y-127204508D01*
X108585402Y-126996460D01*
X108578752Y-126977090D01*
X108522979Y-126756847D01*
X108519609Y-126736647D01*
X108500848Y-126510233D01*
X108500848Y-126489766D01*
X108519609Y-126263350D01*
X108522979Y-126243152D01*
X108578752Y-126022909D01*
X108585402Y-126003539D01*
X108676662Y-125795485D01*
X108686403Y-125777484D01*
X108810672Y-125587278D01*
X108823249Y-125571120D01*
X108977122Y-125403970D01*
X108992190Y-125390100D01*
X109171467Y-125250563D01*
X109188605Y-125239364D01*
X109388431Y-125131224D01*
X109407170Y-125123005D01*
X109622056Y-125049235D01*
X109641898Y-125044210D01*
X109865998Y-125006814D01*
X109886408Y-125005123D01*
X110113592Y-125005123D01*
X110134002Y-125006814D01*
G37*
%TD.AperFunction*%
%TD*%
M02*
