%TF.GenerationSoftware,KiCad,Pcbnew,7.0.9*%
%TF.CreationDate,2024-07-30T16:44:57+08:00*%
%TF.ProjectId,LED,4c45442e-6b69-4636-9164-5f7063625858,rev?*%
%TF.SameCoordinates,Original*%
%TF.FileFunction,Soldermask,Top*%
%TF.FilePolarity,Negative*%
%FSLAX46Y46*%
G04 Gerber Fmt 4.6, Leading zero omitted, Abs format (unit mm)*
G04 Created by KiCad (PCBNEW 7.0.9) date 2024-07-30 16:44:57*
%MOMM*%
%LPD*%
G01*
G04 APERTURE LIST*
G04 Aperture macros list*
%AMRoundRect*
0 Rectangle with rounded corners*
0 $1 Rounding radius*
0 $2 $3 $4 $5 $6 $7 $8 $9 X,Y pos of 4 corners*
0 Add a 4 corners polygon primitive as box body*
4,1,4,$2,$3,$4,$5,$6,$7,$8,$9,$2,$3,0*
0 Add four circle primitives for the rounded corners*
1,1,$1+$1,$2,$3*
1,1,$1+$1,$4,$5*
1,1,$1+$1,$6,$7*
1,1,$1+$1,$8,$9*
0 Add four rect primitives between the rounded corners*
20,1,$1+$1,$2,$3,$4,$5,0*
20,1,$1+$1,$4,$5,$6,$7,0*
20,1,$1+$1,$6,$7,$8,$9,0*
20,1,$1+$1,$8,$9,$2,$3,0*%
%AMRotRect*
0 Rectangle, with rotation*
0 The origin of the aperture is its center*
0 $1 length*
0 $2 width*
0 $3 Rotation angle, in degrees counterclockwise*
0 Add horizontal line*
21,1,$1,$2,0,0,$3*%
G04 Aperture macros list end*
%ADD10C,1.275000*%
%ADD11RoundRect,0.100000X-0.950000X0.100000X-0.950000X-0.100000X0.950000X-0.100000X0.950000X0.100000X0*%
%ADD12R,0.350000X0.630000*%
%ADD13R,2.210000X2.390000*%
%ADD14RoundRect,0.250000X0.742462X-1.308148X1.308148X-0.742462X-0.742462X1.308148X-1.308148X0.742462X0*%
%ADD15C,3.000000*%
%ADD16R,0.450000X0.630000*%
%ADD17R,1.050000X0.800000*%
%ADD18RotRect,1.200000X3.700000X315.000000*%
%ADD19C,4.000000*%
%ADD20RoundRect,0.437500X1.312500X-0.437500X1.312500X0.437500X-1.312500X0.437500X-1.312500X-0.437500X0*%
%ADD21RotRect,1.200000X3.700000X45.000000*%
%ADD22RoundRect,0.250000X0.000000X0.353553X-0.353553X0.000000X0.000000X-0.353553X0.353553X0.000000X0*%
G04 APERTURE END LIST*
D10*
X111637500Y-96250000D02*
G75*
G03*
X111637500Y-96250000I-637500J0D01*
G01*
X111837500Y-113700000D02*
G75*
G03*
X111837500Y-113700000I-637500J0D01*
G01*
D11*
%TO.C,R1*%
X112500000Y-93100000D03*
X112500000Y-94000000D03*
%TD*%
D12*
%TO.C,U2*%
X111147500Y-83667500D03*
X110347500Y-83667500D03*
X109547500Y-83667500D03*
X108747500Y-83667500D03*
X108747500Y-87337500D03*
X109547500Y-87337500D03*
X110347500Y-87337500D03*
X111147500Y-87337500D03*
D13*
X109947500Y-85502500D03*
%TD*%
D14*
%TO.C,L1*%
X110800000Y-119000000D03*
X113946626Y-115853374D03*
%TD*%
D15*
%TO.C,REF\u002A\u002A*%
X114836200Y-120000000D03*
%TD*%
%TO.C,REF\u002A\u002A*%
X105000000Y-90000000D03*
%TD*%
D16*
%TO.C,LM3401*%
X110650000Y-89560000D03*
X109700000Y-89560000D03*
X108750000Y-89560000D03*
X108750000Y-92240000D03*
X109700000Y-92240000D03*
X110650000Y-92240000D03*
D17*
X110225000Y-90500000D03*
X109175000Y-90500000D03*
X110225000Y-91300000D03*
X109175000Y-91300000D03*
%TD*%
D18*
%TO.C,L4*%
X108020102Y-123020102D03*
X110000000Y-125000000D03*
%TD*%
D19*
%TO.C,REF\u002A\u002A*%
X115000000Y-90000000D03*
%TD*%
D20*
%TO.C,NV4WB35AM1*%
X109950000Y-148800000D03*
X109950000Y-151200000D03*
%TD*%
D21*
%TO.C,L3*%
X106586228Y-116745127D03*
X108566126Y-114765229D03*
%TD*%
D22*
%TO.C,D1*%
X114500000Y-124000000D03*
X112732234Y-125767766D03*
%TD*%
D19*
%TO.C,REF\u002A\u002A*%
X104836228Y-119995127D03*
%TD*%
M02*
