%TF.GenerationSoftware,KiCad,Pcbnew,7.0.9*%
%TF.CreationDate,2024-07-30T16:44:57+08:00*%
%TF.ProjectId,LED,4c45442e-6b69-4636-9164-5f7063625858,rev?*%
%TF.SameCoordinates,Original*%
%TF.FileFunction,Copper,L1,Top*%
%TF.FilePolarity,Positive*%
%FSLAX46Y46*%
G04 Gerber Fmt 4.6, Leading zero omitted, Abs format (unit mm)*
G04 Created by KiCad (PCBNEW 7.0.9) date 2024-07-30 16:44:57*
%MOMM*%
%LPD*%
G01*
G04 APERTURE LIST*
G04 Aperture macros list*
%AMRoundRect*
0 Rectangle with rounded corners*
0 $1 Rounding radius*
0 $2 $3 $4 $5 $6 $7 $8 $9 X,Y pos of 4 corners*
0 Add a 4 corners polygon primitive as box body*
4,1,4,$2,$3,$4,$5,$6,$7,$8,$9,$2,$3,0*
0 Add four circle primitives for the rounded corners*
1,1,$1+$1,$2,$3*
1,1,$1+$1,$4,$5*
1,1,$1+$1,$6,$7*
1,1,$1+$1,$8,$9*
0 Add four rect primitives between the rounded corners*
20,1,$1+$1,$2,$3,$4,$5,0*
20,1,$1+$1,$4,$5,$6,$7,0*
20,1,$1+$1,$6,$7,$8,$9,0*
20,1,$1+$1,$8,$9,$2,$3,0*%
%AMRotRect*
0 Rectangle, with rotation*
0 The origin of the aperture is its center*
0 $1 length*
0 $2 width*
0 $3 Rotation angle, in degrees counterclockwise*
0 Add horizontal line*
21,1,$1,$2,0,0,$3*%
G04 Aperture macros list end*
%TA.AperFunction,SMDPad,CuDef*%
%ADD10RoundRect,0.100000X-0.950000X0.100000X-0.950000X-0.100000X0.950000X-0.100000X0.950000X0.100000X0*%
%TD*%
%TA.AperFunction,SMDPad,CuDef*%
%ADD11R,0.350000X0.630000*%
%TD*%
%TA.AperFunction,SMDPad,CuDef*%
%ADD12R,2.210000X2.390000*%
%TD*%
%TA.AperFunction,SMDPad,CuDef*%
%ADD13RoundRect,0.250000X0.742462X-1.308148X1.308148X-0.742462X-0.742462X1.308148X-1.308148X0.742462X0*%
%TD*%
%TA.AperFunction,ComponentPad*%
%ADD14C,3.000000*%
%TD*%
%TA.AperFunction,SMDPad,CuDef*%
%ADD15R,0.450000X0.630000*%
%TD*%
%TA.AperFunction,SMDPad,CuDef*%
%ADD16R,1.050000X0.800000*%
%TD*%
%TA.AperFunction,SMDPad,CuDef*%
%ADD17RotRect,1.200000X3.700000X315.000000*%
%TD*%
%TA.AperFunction,ComponentPad*%
%ADD18C,4.000000*%
%TD*%
%TA.AperFunction,SMDPad,CuDef*%
%ADD19RoundRect,0.437500X1.312500X-0.437500X1.312500X0.437500X-1.312500X0.437500X-1.312500X-0.437500X0*%
%TD*%
%TA.AperFunction,SMDPad,CuDef*%
%ADD20RotRect,1.200000X3.700000X45.000000*%
%TD*%
%TA.AperFunction,SMDPad,CuDef*%
%ADD21RoundRect,0.250000X0.000000X0.353553X-0.353553X0.000000X0.000000X-0.353553X0.353553X0.000000X0*%
%TD*%
%TA.AperFunction,ViaPad*%
%ADD22C,0.800000*%
%TD*%
%TA.AperFunction,ViaPad*%
%ADD23C,1.000000*%
%TD*%
%TA.AperFunction,ViaPad*%
%ADD24C,1.500000*%
%TD*%
%TA.AperFunction,Conductor*%
%ADD25C,0.300000*%
%TD*%
%TA.AperFunction,Conductor*%
%ADD26C,1.000000*%
%TD*%
%TA.AperFunction,Conductor*%
%ADD27C,0.250000*%
%TD*%
G04 APERTURE END LIST*
D10*
%TO.P,R1,1*%
%TO.N,Net-(LM3401-FB)*%
X112500000Y-93100000D03*
%TO.P,R1,2*%
%TO.N,-BATT*%
X112500000Y-94000000D03*
%TD*%
D11*
%TO.P,U2,1,P3.4/RST/T0/INT2/MCLKO*%
%TO.N,unconnected-(U2-P3.4{slash}RST{slash}T0{slash}INT2{slash}MCLKO-Pad1)*%
X111147500Y-83667500D03*
%TO.P,U2,2,VCC*%
%TO.N,+BATT*%
X110347500Y-83667500D03*
%TO.P,U2,3,P3.5/T0CLKO/INT3*%
%TO.N,unconnected-(U2-P3.5{slash}T0CLKO{slash}INT3-Pad3)*%
X109547500Y-83667500D03*
%TO.P,U2,4,GND*%
%TO.N,-BATT*%
X108747500Y-83667500D03*
%TO.P,U2,5,T2CLKO/INT4/P3.0*%
%TO.N,unconnected-(U2-T2CLKO{slash}INT4{slash}P3.0-Pad5)*%
X108747500Y-87337500D03*
%TO.P,U2,6,T2/P3.1*%
%TO.N,unconnected-(U2-T2{slash}P3.1-Pad6)*%
X109547500Y-87337500D03*
%TO.P,U2,7,INT0/P3.2*%
%TO.N,unconnected-(U2-INT0{slash}P3.2-Pad7)*%
X110347500Y-87337500D03*
%TO.P,U2,8,RSTOUT_LOW/INT1/P3.3*%
%TO.N,Net-(LM3401-DIM)*%
X111147500Y-87337500D03*
D12*
%TO.P,U2,9*%
%TO.N,N/C*%
X109947500Y-85502500D03*
%TD*%
D13*
%TO.P,L1,1,1*%
%TO.N,+BATT*%
X110800000Y-119000000D03*
%TO.P,L1,2,2*%
%TO.N,Net-(D1-A)*%
X113946626Y-115853374D03*
%TD*%
D14*
%TO.P,REF\u002A\u002A,2*%
%TO.N,Net-(LM3401-FB)*%
X114836200Y-120000000D03*
%TD*%
%TO.P,REF\u002A\u002A,1*%
%TO.N,+BATT*%
X105000000Y-90000000D03*
%TD*%
D15*
%TO.P,LM3401,*%
%TO.N,*%
X110650000Y-89560000D03*
%TO.P,LM3401,2,Vin*%
%TO.N,+BATT*%
X109700000Y-89560000D03*
%TO.P,LM3401,3,DIM*%
%TO.N,Net-(LM3401-DIM)*%
X108750000Y-89560000D03*
%TO.P,LM3401,4,SW*%
%TO.N,Net-(D1-A)*%
X108750000Y-92240000D03*
%TO.P,LM3401,5,AGND*%
%TO.N,-BATT*%
X109700000Y-92240000D03*
%TO.P,LM3401,6,FB*%
%TO.N,Net-(LM3401-FB)*%
X110650000Y-92240000D03*
D16*
%TO.P,LM3401,7*%
%TO.N,N/C*%
X110225000Y-90500000D03*
X109175000Y-90500000D03*
X110225000Y-91300000D03*
X109175000Y-91300000D03*
%TD*%
D17*
%TO.P,L4,1,1*%
%TO.N,+BATT*%
X108020102Y-123020102D03*
%TO.P,L4,2,2*%
%TO.N,Net-(D1-A)*%
X110000000Y-125000000D03*
%TD*%
D18*
%TO.P,REF\u002A\u002A,2*%
%TO.N,Net-(LM3401-FB)*%
X115000000Y-90000000D03*
%TD*%
D19*
%TO.P,NV4WB35AM1,1,Vin*%
%TO.N,Net-(D1-K)*%
X109950000Y-148800000D03*
%TO.P,NV4WB35AM1,2,GND*%
%TO.N,Net-(LM3401-FB)*%
X109950000Y-151200000D03*
%TD*%
D20*
%TO.P,L3,1,1*%
%TO.N,+BATT*%
X106586228Y-116745127D03*
%TO.P,L3,2,2*%
%TO.N,Net-(D1-A)*%
X108566126Y-114765229D03*
%TD*%
D21*
%TO.P,D1,1,K*%
%TO.N,Net-(D1-K)*%
X114500000Y-124000000D03*
%TO.P,D1,2,A*%
%TO.N,Net-(D1-A)*%
X112732234Y-125767766D03*
%TD*%
D18*
%TO.P,REF\u002A\u002A,1*%
%TO.N,+BATT*%
X104836228Y-119995127D03*
%TD*%
D22*
%TO.N,Net-(LM3401-FB)*%
X110000000Y-154250000D03*
X113750000Y-151500000D03*
X106000000Y-154250000D03*
X106000000Y-151500000D03*
X113750000Y-154250000D03*
D23*
%TO.N,-BATT*%
X113750000Y-95000000D03*
X104750000Y-93250000D03*
X115000000Y-93250000D03*
X105000000Y-85500000D03*
X106250000Y-95000000D03*
D22*
%TO.N,Net-(D1-K)*%
X113750000Y-145750000D03*
D24*
X115500000Y-122950000D03*
D22*
X110000000Y-145750000D03*
X113750000Y-148750000D03*
X106000000Y-145750000D03*
X106000000Y-148750000D03*
%TO.N,+BATT*%
X109867609Y-89024278D03*
D23*
X107163688Y-84209078D03*
D24*
%TO.N,Net-(D1-A)*%
X111000000Y-116200000D03*
X111600000Y-122750000D03*
%TD*%
D25*
%TO.N,Net-(LM3401-FB)*%
X115000000Y-90000000D02*
X115000000Y-90750000D01*
X115000000Y-90500000D02*
X115000000Y-90000000D01*
D26*
X115000000Y-90750000D02*
X113250000Y-92500000D01*
D27*
%TO.N,+BATT*%
X108345266Y-83027500D02*
X110047500Y-83027500D01*
X110047500Y-83027500D02*
X110347500Y-83327500D01*
X110347500Y-83327500D02*
X110347500Y-83667500D01*
X109700000Y-89560000D02*
X109700000Y-89191887D01*
X107163688Y-84209078D02*
X108345266Y-83027500D01*
X109700000Y-89191887D02*
X109867609Y-89024278D01*
%TO.N,Net-(LM3401-DIM)*%
X109400000Y-88300000D02*
X110600000Y-88300000D01*
X108750000Y-89560000D02*
X108750000Y-88950000D01*
X111147500Y-87752500D02*
X111147500Y-87337500D01*
X110600000Y-88300000D02*
X111147500Y-87752500D01*
X108750000Y-88950000D02*
X109400000Y-88300000D01*
%TD*%
%TA.AperFunction,Conductor*%
%TO.N,+BATT*%
G36*
X104943038Y-113723332D02*
G01*
X107802918Y-116600000D01*
X108300000Y-117100000D01*
X110885238Y-117597161D01*
X110910630Y-117610630D01*
X112785648Y-119485648D01*
X112800000Y-119520296D01*
X112800000Y-119579704D01*
X112785648Y-119614352D01*
X107134783Y-125265216D01*
X107100135Y-125279568D01*
X107065487Y-125265216D01*
X107065352Y-125265081D01*
X101851637Y-120010656D01*
X101837420Y-119975952D01*
X101837449Y-119974474D01*
X101856184Y-119437948D01*
X101856300Y-119436284D01*
X101904429Y-118978373D01*
X101904763Y-118976180D01*
X102100000Y-118000000D01*
X102142308Y-117807439D01*
X102146408Y-117790997D01*
X102146879Y-117789353D01*
X102318894Y-117259948D01*
X102319479Y-117258340D01*
X102426224Y-116994136D01*
X102523918Y-116752333D01*
X102524709Y-116750579D01*
X102600000Y-116600000D01*
X102743066Y-116301145D01*
X102772719Y-116240346D01*
X102773511Y-116238857D01*
X103051853Y-115756753D01*
X103052725Y-115755358D01*
X103070126Y-115729559D01*
X103300000Y-115400000D01*
X103694659Y-114870549D01*
X103707739Y-114853808D01*
X103708824Y-114852515D01*
X104081317Y-114438820D01*
X104082451Y-114437644D01*
X104482928Y-114050908D01*
X104484151Y-114049808D01*
X104876793Y-113720342D01*
X104912560Y-113709065D01*
X104943038Y-113723332D01*
G37*
%TD.AperFunction*%
%TD*%
%TA.AperFunction,Conductor*%
%TO.N,Net-(LM3401-FB)*%
G36*
X116841491Y-116142685D02*
G01*
X116849279Y-116152834D01*
X116867557Y-116184493D01*
X116919677Y-116281231D01*
X117116489Y-116684754D01*
X117162142Y-116786008D01*
X117329952Y-117201351D01*
X117368667Y-117306435D01*
X117506846Y-117731708D01*
X117538260Y-117839977D01*
X117646273Y-118273194D01*
X117670103Y-118384021D01*
X117747553Y-118823263D01*
X117763557Y-118935860D01*
X117810144Y-119379093D01*
X117818188Y-119492851D01*
X117835698Y-119994271D01*
X117835698Y-119995982D01*
X117818188Y-120497400D01*
X117810143Y-120611162D01*
X117763558Y-121054390D01*
X117747552Y-121166994D01*
X117670104Y-121606227D01*
X117646272Y-121717065D01*
X117538262Y-122150268D01*
X117506843Y-122258554D01*
X117368669Y-122683810D01*
X117329947Y-122788913D01*
X117162146Y-123204236D01*
X117116483Y-123305511D01*
X116919682Y-123709011D01*
X116867550Y-123805773D01*
X116642465Y-124195631D01*
X116584358Y-124287336D01*
X116331852Y-124661691D01*
X116268335Y-124747831D01*
X115989351Y-125104914D01*
X115921015Y-125185068D01*
X115616641Y-125523110D01*
X115544194Y-125596847D01*
X115215535Y-125914228D01*
X115139719Y-125981213D01*
X114906180Y-126177173D01*
X114870413Y-126188451D01*
X114837148Y-126171133D01*
X114832847Y-126165145D01*
X114808178Y-126124671D01*
X114808175Y-126124666D01*
X114716574Y-126013722D01*
X114377511Y-125705482D01*
X114361527Y-125671556D01*
X114374215Y-125636264D01*
X114408141Y-125620280D01*
X114415262Y-125620460D01*
X114475809Y-125626424D01*
X114524192Y-125626424D01*
X114540627Y-125624805D01*
X114622809Y-125616711D01*
X114689230Y-125603499D01*
X114784055Y-125574734D01*
X114828755Y-125556219D01*
X114916154Y-125509504D01*
X114993139Y-125458064D01*
X114993143Y-125458061D01*
X114993143Y-125458062D01*
X115004000Y-125450008D01*
X115013076Y-125443278D01*
X115051050Y-125412112D01*
X115069437Y-125395447D01*
X116645447Y-123819437D01*
X116662112Y-123801050D01*
X116693278Y-123763076D01*
X116700436Y-123753424D01*
X116708062Y-123743143D01*
X116708061Y-123743143D01*
X116708064Y-123743139D01*
X116759504Y-123666154D01*
X116806219Y-123578755D01*
X116824734Y-123534055D01*
X116853499Y-123439230D01*
X116866711Y-123372809D01*
X116876424Y-123274191D01*
X116876424Y-123225809D01*
X116866711Y-123127192D01*
X116853499Y-123060770D01*
X116824734Y-122965944D01*
X116824732Y-122965937D01*
X116806222Y-122921249D01*
X116759507Y-122833851D01*
X116759504Y-122833845D01*
X116708064Y-122756860D01*
X116708061Y-122756856D01*
X116708062Y-122756856D01*
X116700008Y-122745998D01*
X116693278Y-122736923D01*
X116662112Y-122698949D01*
X116645447Y-122680562D01*
X115769437Y-121804552D01*
X115751050Y-121787887D01*
X115751041Y-121787880D01*
X115713085Y-121756729D01*
X115713086Y-121756729D01*
X115693138Y-121741934D01*
X115616151Y-121690494D01*
X115616150Y-121690493D01*
X115616145Y-121690490D01*
X115616143Y-121690489D01*
X115528748Y-121643775D01*
X115484061Y-121625266D01*
X115484063Y-121625266D01*
X115389238Y-121596503D01*
X115389231Y-121596501D01*
X115389216Y-121596498D01*
X115322803Y-121583288D01*
X115322801Y-121583287D01*
X115322797Y-121583287D01*
X115224188Y-121573575D01*
X115224187Y-121573575D01*
X115175813Y-121573575D01*
X115175812Y-121573575D01*
X115077205Y-121583286D01*
X115010781Y-121596498D01*
X115010771Y-121596500D01*
X115010761Y-121596502D01*
X115010761Y-121596503D01*
X114915944Y-121625263D01*
X114915930Y-121625268D01*
X114871247Y-121643776D01*
X114783853Y-121690490D01*
X114732283Y-121724948D01*
X114706855Y-121741939D01*
X114706851Y-121741942D01*
X114706851Y-121741941D01*
X114695993Y-121749994D01*
X114686918Y-121756725D01*
X114686911Y-121756731D01*
X114686910Y-121756731D01*
X114648957Y-121787879D01*
X114648956Y-121787880D01*
X114648949Y-121787886D01*
X114630567Y-121804547D01*
X114284846Y-122150268D01*
X113404694Y-123030418D01*
X113370046Y-123044770D01*
X113335398Y-123030418D01*
X113330820Y-123025135D01*
X113303426Y-122988541D01*
X113303421Y-122988536D01*
X111845118Y-121530234D01*
X111760984Y-121462433D01*
X111760971Y-121462424D01*
X111716631Y-121433927D01*
X111619981Y-121385548D01*
X111479392Y-121354967D01*
X111479394Y-121354967D01*
X111452266Y-121353027D01*
X111418730Y-121336240D01*
X111406887Y-121300656D01*
X111421113Y-121269505D01*
X112930958Y-119759662D01*
X112975505Y-119692995D01*
X112989857Y-119658347D01*
X113005500Y-119579704D01*
X113005500Y-119520296D01*
X112989857Y-119441653D01*
X112987805Y-119436700D01*
X112975507Y-119407010D01*
X112975505Y-119407005D01*
X112930958Y-119340338D01*
X111129110Y-117538490D01*
X111114758Y-117503842D01*
X111129110Y-117469194D01*
X111163758Y-117454842D01*
X111173005Y-117455723D01*
X114439948Y-118083982D01*
X114541523Y-118093041D01*
X114591298Y-118092439D01*
X114692637Y-118080924D01*
X114692639Y-118080923D01*
X114692641Y-118080923D01*
X114692642Y-118080923D01*
X114827436Y-118030646D01*
X114827439Y-118030644D01*
X114827446Y-118030642D01*
X114888769Y-117997157D01*
X115003951Y-117910933D01*
X116772196Y-116142684D01*
X116806843Y-116128333D01*
X116841491Y-116142685D01*
G37*
%TD.AperFunction*%
%TD*%
%TA.AperFunction,Conductor*%
%TO.N,Net-(D1-A)*%
G36*
X110089610Y-112000844D02*
G01*
X110129103Y-112001540D01*
X110132255Y-112001678D01*
X110623424Y-112036024D01*
X110688288Y-112041763D01*
X110691403Y-112042119D01*
X111173439Y-112109864D01*
X111243269Y-112121051D01*
X111246344Y-112121624D01*
X111717545Y-112221781D01*
X111791323Y-112239013D01*
X111794219Y-112239765D01*
X112252994Y-112371317D01*
X112329675Y-112395040D01*
X112332465Y-112395978D01*
X112777151Y-112557831D01*
X112855735Y-112588369D01*
X112858495Y-112589519D01*
X113062126Y-112680181D01*
X113287353Y-112780458D01*
X113367003Y-112818075D01*
X113369592Y-112819375D01*
X113707047Y-112998803D01*
X113781140Y-113038199D01*
X113860855Y-113082980D01*
X113863287Y-113084421D01*
X114116758Y-113242807D01*
X114255977Y-113329802D01*
X114296003Y-113356164D01*
X114334948Y-113381815D01*
X114337210Y-113383379D01*
X114709615Y-113653948D01*
X114786907Y-113713076D01*
X114789047Y-113714791D01*
X115139738Y-114009056D01*
X115215518Y-114076008D01*
X115544205Y-114393417D01*
X115616634Y-114467135D01*
X115921041Y-114805214D01*
X115989341Y-114885326D01*
X116268350Y-115242442D01*
X116331835Y-115328537D01*
X116492042Y-115566054D01*
X116513210Y-115632640D01*
X116495019Y-115700100D01*
X116476922Y-115723075D01*
X114646508Y-117553491D01*
X114585185Y-117586976D01*
X114535410Y-117587578D01*
X113175853Y-117326125D01*
X109437073Y-116607129D01*
X109374957Y-116575138D01*
X109373189Y-116573420D01*
X106089801Y-113318313D01*
X105956144Y-113185807D01*
X105922395Y-113124630D01*
X105927078Y-113054917D01*
X105968707Y-112998803D01*
X105985222Y-112988268D01*
X106327580Y-112806233D01*
X106331447Y-112804346D01*
X106835247Y-112580041D01*
X106836080Y-112579682D01*
X106838970Y-112578440D01*
X106842156Y-112577175D01*
X107350830Y-112392033D01*
X107366044Y-112386732D01*
X107369237Y-112385718D01*
X107879309Y-112239458D01*
X107905119Y-112232461D01*
X107908400Y-112231667D01*
X108351064Y-112137576D01*
X108418159Y-112123315D01*
X108453716Y-112116323D01*
X108456995Y-112115770D01*
X108964748Y-112044410D01*
X108989672Y-112041315D01*
X109009062Y-112038907D01*
X109012329Y-112038590D01*
X109516303Y-112003349D01*
X109568443Y-112000586D01*
X109571718Y-112000500D01*
X110070074Y-112000500D01*
X110089610Y-112000844D01*
G37*
%TD.AperFunction*%
%TD*%
%TA.AperFunction,Conductor*%
%TO.N,Net-(LM3401-FB)*%
G36*
X114500000Y-155000000D02*
G01*
X105250000Y-155000000D01*
X105250000Y-150500000D01*
X114500000Y-150500000D01*
X114500000Y-155000000D01*
G37*
%TD.AperFunction*%
%TD*%
%TA.AperFunction,Conductor*%
%TO.N,Net-(D1-A)*%
G36*
X111621115Y-95165656D02*
G01*
X111621118Y-95165658D01*
X111450529Y-95086111D01*
X111621115Y-95165656D01*
G37*
%TD.AperFunction*%
%TD*%
%TA.AperFunction,Conductor*%
%TO.N,Net-(D1-A)*%
G36*
X108623017Y-92016195D02*
G01*
X108635368Y-92019505D01*
X108744040Y-92064518D01*
X108755116Y-92070913D01*
X108848435Y-92142520D01*
X108857479Y-92151564D01*
X108929086Y-92244883D01*
X108935482Y-92255961D01*
X108980493Y-92364627D01*
X108983804Y-92376983D01*
X108999790Y-92498407D01*
X109000000Y-92501609D01*
X109000000Y-94500000D01*
X109772069Y-94680733D01*
X109772072Y-94680734D01*
X109772078Y-94680735D01*
X109772083Y-94680737D01*
X111201552Y-95015360D01*
X111217028Y-95019113D01*
X111232444Y-95023112D01*
X111343018Y-95052740D01*
X111385041Y-95065989D01*
X111425203Y-95078652D01*
X111427203Y-95079381D01*
X111506816Y-95112358D01*
X111545709Y-95130494D01*
X111622145Y-95170284D01*
X111623983Y-95171345D01*
X111696666Y-95217649D01*
X111731824Y-95242267D01*
X111800190Y-95294726D01*
X111801806Y-95296081D01*
X111865350Y-95354309D01*
X111895691Y-95384650D01*
X111953916Y-95448191D01*
X111955281Y-95449819D01*
X112007738Y-95518182D01*
X112032351Y-95553334D01*
X112078646Y-95626002D01*
X112079715Y-95627854D01*
X112119506Y-95704291D01*
X112137642Y-95743184D01*
X112170618Y-95822796D01*
X112171350Y-95824806D01*
X112197260Y-95906982D01*
X112208366Y-95948432D01*
X112227015Y-96032551D01*
X112227386Y-96034657D01*
X112238635Y-96120097D01*
X112242375Y-96162846D01*
X112246133Y-96248931D01*
X112246133Y-96251069D01*
X112242375Y-96337154D01*
X112238635Y-96379903D01*
X112227386Y-96465342D01*
X112227015Y-96467448D01*
X112208366Y-96551568D01*
X112197260Y-96593018D01*
X112171350Y-96675193D01*
X112170618Y-96677202D01*
X112137642Y-96756816D01*
X112119506Y-96795709D01*
X112079715Y-96872145D01*
X112078646Y-96873997D01*
X112032351Y-96946666D01*
X112007738Y-96981818D01*
X111955281Y-97050181D01*
X111953907Y-97051819D01*
X111895691Y-97115350D01*
X111865350Y-97145691D01*
X111801819Y-97203907D01*
X111800181Y-97205281D01*
X111783782Y-97217864D01*
X111731824Y-97257732D01*
X111705289Y-97276313D01*
X111696666Y-97282351D01*
X111623997Y-97328646D01*
X111622145Y-97329715D01*
X111545709Y-97369506D01*
X111506816Y-97387642D01*
X111427202Y-97420618D01*
X111425193Y-97421350D01*
X111383644Y-97434450D01*
X111343026Y-97447257D01*
X111311370Y-97455739D01*
X111301568Y-97458366D01*
X111217448Y-97477015D01*
X111215342Y-97477386D01*
X111129903Y-97488635D01*
X111087154Y-97492375D01*
X111001069Y-97496133D01*
X110998931Y-97496133D01*
X110912846Y-97492375D01*
X110870097Y-97488635D01*
X110784657Y-97477386D01*
X110782555Y-97477015D01*
X110698432Y-97458366D01*
X110688628Y-97455739D01*
X110573411Y-97424866D01*
X110572475Y-97424616D01*
X110571539Y-97424363D01*
X109009058Y-97002446D01*
X109000000Y-97000000D01*
X108501580Y-96875395D01*
X108498487Y-96874400D01*
X108343844Y-96813070D01*
X108332539Y-96806744D01*
X108203303Y-96709975D01*
X108194050Y-96700907D01*
X108174774Y-96676219D01*
X108094692Y-96573650D01*
X108088139Y-96562475D01*
X108025602Y-96413626D01*
X108022207Y-96401124D01*
X108000215Y-96236225D01*
X108000000Y-96232983D01*
X108000000Y-92501609D01*
X108000210Y-92498408D01*
X108016195Y-92376983D01*
X108019504Y-92364633D01*
X108064520Y-92255955D01*
X108070913Y-92244883D01*
X108142522Y-92151561D01*
X108151561Y-92142522D01*
X108244885Y-92070911D01*
X108255955Y-92064520D01*
X108364633Y-92019504D01*
X108376980Y-92016195D01*
X108493604Y-92000842D01*
X108506396Y-92000842D01*
X108623017Y-92016195D01*
G37*
%TD.AperFunction*%
%TD*%
%TA.AperFunction,Conductor*%
%TO.N,Net-(D1-A)*%
G36*
X111443333Y-121859179D02*
G01*
X111487680Y-121887680D01*
X112945982Y-123345982D01*
X112979467Y-123407305D01*
X112974483Y-123476997D01*
X112961405Y-123502551D01*
X112940490Y-123533853D01*
X112893782Y-123621236D01*
X112875267Y-123665934D01*
X112858680Y-123720613D01*
X112827701Y-123772297D01*
X112200000Y-124399999D01*
X112200000Y-124400000D01*
X113400000Y-125500000D01*
X114376537Y-126387761D01*
X114412901Y-126447422D01*
X114411237Y-126517272D01*
X114372074Y-126575134D01*
X114356924Y-126585843D01*
X113502038Y-127098776D01*
X113497865Y-127101067D01*
X113225199Y-127237399D01*
X113222689Y-127238584D01*
X112858502Y-127400730D01*
X112855742Y-127401880D01*
X112789280Y-127427708D01*
X112147789Y-127649012D01*
X112144658Y-127650000D01*
X111865787Y-127729966D01*
X111862255Y-127730867D01*
X111269543Y-127863698D01*
X111246363Y-127868624D01*
X111243284Y-127869197D01*
X111187694Y-127878104D01*
X111184072Y-127878685D01*
X111101115Y-127888911D01*
X110504540Y-127962455D01*
X110501278Y-127962770D01*
X110132338Y-127988570D01*
X110129107Y-127988711D01*
X110071941Y-127989720D01*
X110070048Y-127989754D01*
X109571733Y-127989754D01*
X109568451Y-127989667D01*
X109563212Y-127989389D01*
X109516202Y-127986897D01*
X109012388Y-127951667D01*
X109009072Y-127951345D01*
X108964672Y-127945832D01*
X108457069Y-127874494D01*
X108453736Y-127873933D01*
X108418097Y-127866926D01*
X107908470Y-127758601D01*
X107905139Y-127757796D01*
X107886003Y-127752609D01*
X107879195Y-127750763D01*
X107369333Y-127604562D01*
X107366021Y-127603512D01*
X107350682Y-127598166D01*
X106842238Y-127413107D01*
X106838950Y-127411803D01*
X106835219Y-127410199D01*
X106829003Y-127407432D01*
X106825208Y-127405742D01*
X106400000Y-127200000D01*
X106296279Y-127165426D01*
X106277278Y-127157275D01*
X106272106Y-127154525D01*
X106222155Y-127105671D01*
X106206545Y-127037567D01*
X106230234Y-126971836D01*
X106242626Y-126957372D01*
X111312322Y-121887677D01*
X111373641Y-121854195D01*
X111443333Y-121859179D01*
G37*
%TD.AperFunction*%
%TD*%
%TA.AperFunction,Conductor*%
%TO.N,Net-(D1-K)*%
G36*
X115290615Y-122092288D02*
G01*
X115335310Y-122110801D01*
X115401978Y-122155347D01*
X115420768Y-122170768D01*
X116279231Y-123029231D01*
X116294652Y-123048021D01*
X116339197Y-123114687D01*
X116357712Y-123159387D01*
X116370924Y-123225809D01*
X116370924Y-123274191D01*
X116357712Y-123340612D01*
X116339197Y-123385312D01*
X116294652Y-123451978D01*
X116279231Y-123470768D01*
X114720768Y-125029231D01*
X114701978Y-125044652D01*
X114635312Y-125089197D01*
X114590612Y-125107712D01*
X114524191Y-125120924D01*
X114475809Y-125120924D01*
X114409387Y-125107712D01*
X114364687Y-125089197D01*
X114298021Y-125044652D01*
X114279231Y-125029231D01*
X113420768Y-124170768D01*
X113405347Y-124151978D01*
X113360802Y-124085312D01*
X113342288Y-124040615D01*
X113329075Y-123974186D01*
X113329075Y-123925813D01*
X113342288Y-123859382D01*
X113360800Y-123814691D01*
X113405352Y-123748014D01*
X113420763Y-123729236D01*
X114979236Y-122170763D01*
X114998014Y-122155352D01*
X115064691Y-122110800D01*
X115109382Y-122092288D01*
X115175813Y-122079075D01*
X115224187Y-122079075D01*
X115290615Y-122092288D01*
G37*
%TD.AperFunction*%
%TD*%
%TA.AperFunction,Conductor*%
%TO.N,Net-(LM3401-FB)*%
G36*
X113454736Y-92000942D02*
G01*
X113555243Y-92020934D01*
X113572907Y-92028250D01*
X113654027Y-92082453D01*
X113667546Y-92095972D01*
X113721749Y-92177092D01*
X113729065Y-92194755D01*
X113749058Y-92295263D01*
X113750000Y-92304823D01*
X113750000Y-93195176D01*
X113749058Y-93204736D01*
X113729065Y-93305244D01*
X113721749Y-93322907D01*
X113667546Y-93404027D01*
X113654027Y-93417546D01*
X113572907Y-93471749D01*
X113555244Y-93479065D01*
X113478331Y-93494364D01*
X113454734Y-93499058D01*
X113445177Y-93500000D01*
X110804823Y-93500000D01*
X110795265Y-93499058D01*
X110766036Y-93493244D01*
X110694755Y-93479065D01*
X110677092Y-93471749D01*
X110595972Y-93417546D01*
X110582453Y-93404027D01*
X110528250Y-93322907D01*
X110520934Y-93305247D01*
X110500940Y-93204726D01*
X110500000Y-93195176D01*
X110500000Y-92304823D01*
X110500939Y-92295274D01*
X110520935Y-92194750D01*
X110528250Y-92177092D01*
X110582453Y-92095972D01*
X110595972Y-92082453D01*
X110677092Y-92028250D01*
X110694750Y-92020935D01*
X110795274Y-92000939D01*
X110804823Y-92000000D01*
X113445177Y-92000000D01*
X113454736Y-92000942D01*
G37*
%TD.AperFunction*%
%TD*%
%TA.AperFunction,Conductor*%
%TO.N,-BATT*%
G36*
X111700000Y-89900000D02*
G01*
X111074455Y-89900000D01*
X111075500Y-89894748D01*
X111075500Y-89225252D01*
X111070477Y-89200000D01*
X111700000Y-89200000D01*
X111700000Y-89900000D01*
G37*
%TD.AperFunction*%
%TD*%
%TA.AperFunction,Conductor*%
%TO.N,-BATT*%
G36*
X110253140Y-82005713D02*
G01*
X110293837Y-82006430D01*
X110295091Y-82006485D01*
X110787192Y-82040896D01*
X110811996Y-82043090D01*
X110853037Y-82046722D01*
X110854188Y-82046853D01*
X111337211Y-82114737D01*
X111407970Y-82126073D01*
X111409185Y-82126299D01*
X111881311Y-82226653D01*
X111955977Y-82244092D01*
X111957131Y-82244392D01*
X112416765Y-82376190D01*
X112483826Y-82396937D01*
X112494299Y-82400177D01*
X112495413Y-82400551D01*
X112940916Y-82562702D01*
X113020366Y-82593576D01*
X113021443Y-82594025D01*
X113451141Y-82785338D01*
X113531587Y-82823332D01*
X113532559Y-82823819D01*
X113944912Y-83043072D01*
X114025403Y-83088289D01*
X114026331Y-83088839D01*
X114333676Y-83280890D01*
X114419750Y-83334675D01*
X114499451Y-83387170D01*
X114500301Y-83387758D01*
X114873387Y-83658821D01*
X114921729Y-83695802D01*
X114951318Y-83718438D01*
X114952180Y-83719129D01*
X115183928Y-83913588D01*
X115303518Y-84013936D01*
X115379295Y-84080886D01*
X115707985Y-84398297D01*
X115780402Y-84472004D01*
X116084803Y-84810076D01*
X116153114Y-84890200D01*
X116432120Y-85247312D01*
X116495616Y-85333424D01*
X116748141Y-85707806D01*
X116806230Y-85799483D01*
X117031330Y-86189367D01*
X117083449Y-86286104D01*
X117280261Y-86689627D01*
X117325914Y-86790881D01*
X117493724Y-87206224D01*
X117532439Y-87311308D01*
X117670618Y-87736581D01*
X117702032Y-87844850D01*
X117810045Y-88278067D01*
X117833875Y-88388894D01*
X117911325Y-88828136D01*
X117927329Y-88940733D01*
X117973916Y-89383966D01*
X117981960Y-89497724D01*
X117999470Y-89999144D01*
X117999470Y-90000855D01*
X117981960Y-90502273D01*
X117973915Y-90616035D01*
X117927330Y-91059263D01*
X117911324Y-91171867D01*
X117833876Y-91611100D01*
X117810044Y-91721938D01*
X117702034Y-92155141D01*
X117670615Y-92263427D01*
X117532441Y-92688683D01*
X117493719Y-92793786D01*
X117325918Y-93209109D01*
X117280255Y-93310384D01*
X117083454Y-93713884D01*
X117031322Y-93810646D01*
X116806237Y-94200504D01*
X116748130Y-94292209D01*
X116495624Y-94666564D01*
X116432107Y-94752704D01*
X116153123Y-95109787D01*
X116084787Y-95189941D01*
X115780413Y-95527983D01*
X115707966Y-95601720D01*
X115379307Y-95919101D01*
X115303486Y-95986090D01*
X114952194Y-96280857D01*
X114951332Y-96281548D01*
X114873363Y-96341196D01*
X114860425Y-96350597D01*
X114500356Y-96612201D01*
X114499431Y-96612841D01*
X114419721Y-96665343D01*
X114026383Y-96911127D01*
X114025400Y-96911710D01*
X113944879Y-96956945D01*
X113532623Y-97176144D01*
X113531584Y-97176666D01*
X113451081Y-97214688D01*
X113021461Y-97405965D01*
X113020371Y-97406420D01*
X112940868Y-97437315D01*
X112495456Y-97599431D01*
X112494317Y-97599814D01*
X112416716Y-97623823D01*
X111957160Y-97755598D01*
X111955979Y-97755905D01*
X111881236Y-97773362D01*
X111409208Y-97873694D01*
X111407989Y-97873921D01*
X111337156Y-97885270D01*
X110854274Y-97953134D01*
X110853024Y-97953277D01*
X110787119Y-97959108D01*
X110295116Y-97993511D01*
X110293839Y-97993567D01*
X110233830Y-97994627D01*
X109734500Y-97994627D01*
X109733228Y-97994593D01*
X109691949Y-97992405D01*
X109679981Y-97991771D01*
X109175135Y-97956468D01*
X109173825Y-97956341D01*
X109128443Y-97950705D01*
X108619810Y-97879222D01*
X108618498Y-97879000D01*
X108581869Y-97871799D01*
X108071224Y-97763257D01*
X108069907Y-97762939D01*
X108042986Y-97755641D01*
X107532080Y-97609141D01*
X107530769Y-97608725D01*
X107514451Y-97603038D01*
X107005014Y-97417617D01*
X107003723Y-97417105D01*
X106998960Y-97415059D01*
X106494023Y-97190247D01*
X106492502Y-97189505D01*
X106139072Y-97001583D01*
X106001007Y-96928172D01*
X105999525Y-96927317D01*
X105609302Y-96683479D01*
X105527462Y-96632339D01*
X105526064Y-96631398D01*
X105075710Y-96304196D01*
X105074363Y-96303144D01*
X104717147Y-96003404D01*
X104647940Y-95945332D01*
X104646685Y-95944203D01*
X104246237Y-95557496D01*
X104245075Y-95556292D01*
X103872601Y-95142617D01*
X103871504Y-95141309D01*
X103616920Y-94815456D01*
X103528789Y-94702654D01*
X103527811Y-94701309D01*
X103216508Y-94239785D01*
X103215629Y-94238380D01*
X102937290Y-93756281D01*
X102936487Y-93754771D01*
X102692468Y-93254459D01*
X102691778Y-93252911D01*
X102565477Y-92940304D01*
X102483251Y-92736786D01*
X102482666Y-92735178D01*
X102310648Y-92205763D01*
X102310184Y-92204147D01*
X102175516Y-91664027D01*
X102175162Y-91662360D01*
X102078500Y-91114157D01*
X102078262Y-91112464D01*
X102039102Y-90739891D01*
X102020073Y-90558844D01*
X102019956Y-90557176D01*
X102000529Y-90000830D01*
X102000529Y-90000000D01*
X103294732Y-90000000D01*
X103313777Y-90254151D01*
X103313778Y-90254160D01*
X103370492Y-90502638D01*
X103463608Y-90739891D01*
X103591037Y-90960607D01*
X103591040Y-90960611D01*
X103749945Y-91159872D01*
X103749950Y-91159877D01*
X103936783Y-91333232D01*
X104147366Y-91476805D01*
X104147367Y-91476805D01*
X104147368Y-91476806D01*
X104376989Y-91587386D01*
X104376992Y-91587387D01*
X104376996Y-91587389D01*
X104620542Y-91662513D01*
X104872565Y-91700500D01*
X104872567Y-91700500D01*
X105127433Y-91700500D01*
X105127435Y-91700500D01*
X105379458Y-91662513D01*
X105623004Y-91587389D01*
X105852634Y-91476805D01*
X106063217Y-91333232D01*
X106250050Y-91159877D01*
X106408959Y-90960612D01*
X106536393Y-90739888D01*
X106629508Y-90502637D01*
X106686222Y-90254157D01*
X106705268Y-90000000D01*
X106686222Y-89745843D01*
X106629508Y-89497363D01*
X106536393Y-89260112D01*
X106536391Y-89260108D01*
X106408962Y-89039392D01*
X106408959Y-89039388D01*
X106250054Y-88840127D01*
X106250049Y-88840122D01*
X106063218Y-88666769D01*
X106063216Y-88666767D01*
X105852631Y-88523193D01*
X105623010Y-88412613D01*
X105622997Y-88412608D01*
X105489367Y-88371389D01*
X105379458Y-88337487D01*
X105127435Y-88299500D01*
X104872565Y-88299500D01*
X104620542Y-88337487D01*
X104559655Y-88356268D01*
X104377002Y-88412608D01*
X104376989Y-88412613D01*
X104147368Y-88523193D01*
X103936783Y-88666767D01*
X103936781Y-88666769D01*
X103749950Y-88840122D01*
X103749945Y-88840127D01*
X103591040Y-89039388D01*
X103591037Y-89039392D01*
X103463608Y-89260108D01*
X103370492Y-89497361D01*
X103313778Y-89745839D01*
X103313777Y-89745848D01*
X103294732Y-90000000D01*
X102000529Y-90000000D01*
X102000529Y-89999169D01*
X102019956Y-89442821D01*
X102020072Y-89441157D01*
X102063889Y-89024278D01*
X102078262Y-88887535D01*
X102078500Y-88885842D01*
X102175162Y-88337639D01*
X102175518Y-88335966D01*
X102189954Y-88278067D01*
X102310185Y-87795845D01*
X102310648Y-87794236D01*
X102482666Y-87264821D01*
X102483251Y-87263213D01*
X102506276Y-87206224D01*
X102691782Y-86747077D01*
X102692462Y-86745553D01*
X102936491Y-86245219D01*
X102937283Y-86243730D01*
X103215637Y-85761606D01*
X103216500Y-85760227D01*
X103527820Y-85298677D01*
X103528779Y-85297358D01*
X103871508Y-84858684D01*
X103872589Y-84857396D01*
X104245089Y-84443693D01*
X104246223Y-84442517D01*
X104487956Y-84209078D01*
X106458043Y-84209078D01*
X106478548Y-84377950D01*
X106478549Y-84377952D01*
X106538869Y-84537007D01*
X106538870Y-84537009D01*
X106635504Y-84677006D01*
X106635505Y-84677007D01*
X106762836Y-84789812D01*
X106913463Y-84868868D01*
X107078632Y-84909578D01*
X107248744Y-84909578D01*
X107413913Y-84868868D01*
X107564540Y-84789812D01*
X107691871Y-84677007D01*
X107788506Y-84537008D01*
X107848828Y-84377950D01*
X107869333Y-84209078D01*
X107848828Y-84040206D01*
X107844680Y-84029268D01*
X107845811Y-83991782D01*
X107855844Y-83977246D01*
X108465740Y-83367352D01*
X108500388Y-83353000D01*
X109123000Y-83353000D01*
X109157648Y-83367352D01*
X109172000Y-83402000D01*
X109172000Y-84002253D01*
X109181188Y-84048441D01*
X109173872Y-84085223D01*
X109142689Y-84106058D01*
X109133130Y-84107000D01*
X108822752Y-84107000D01*
X108764269Y-84118633D01*
X108697947Y-84162947D01*
X108669998Y-84204777D01*
X108653633Y-84229269D01*
X108642000Y-84287752D01*
X108642000Y-84287753D01*
X108642000Y-84287755D01*
X108642000Y-86717253D01*
X108651188Y-86763441D01*
X108643872Y-86800223D01*
X108612689Y-86821058D01*
X108603130Y-86822000D01*
X108552752Y-86822000D01*
X108494269Y-86833633D01*
X108427947Y-86877947D01*
X108383633Y-86944269D01*
X108372000Y-87002752D01*
X108372000Y-87672248D01*
X108383633Y-87730731D01*
X108387542Y-87736581D01*
X108427947Y-87797052D01*
X108452778Y-87813643D01*
X108494269Y-87841367D01*
X108552752Y-87853000D01*
X108552755Y-87853000D01*
X108942245Y-87853000D01*
X108942248Y-87853000D01*
X109000731Y-87841367D01*
X109067052Y-87797052D01*
X109106758Y-87737627D01*
X109137940Y-87716793D01*
X109174723Y-87724109D01*
X109188242Y-87737628D01*
X109227947Y-87797052D01*
X109252778Y-87813643D01*
X109294269Y-87841367D01*
X109352752Y-87853000D01*
X109352755Y-87853000D01*
X109742245Y-87853000D01*
X109742248Y-87853000D01*
X109800731Y-87841367D01*
X109867052Y-87797052D01*
X109906758Y-87737627D01*
X109937940Y-87716793D01*
X109974723Y-87724109D01*
X109988242Y-87737628D01*
X110027947Y-87797052D01*
X110052778Y-87813643D01*
X110094269Y-87841367D01*
X110152752Y-87853000D01*
X110152755Y-87853000D01*
X110468378Y-87853000D01*
X110503026Y-87867352D01*
X110517378Y-87902000D01*
X110503026Y-87936648D01*
X110479526Y-87960148D01*
X110444878Y-87974500D01*
X109415290Y-87974500D01*
X109413154Y-87974407D01*
X109381808Y-87971664D01*
X109371193Y-87970736D01*
X109371192Y-87970736D01*
X109371191Y-87970736D01*
X109330497Y-87981639D01*
X109328418Y-87982100D01*
X109318120Y-87983916D01*
X109286960Y-87989410D01*
X109286950Y-87989414D01*
X109279945Y-87993458D01*
X109268132Y-87998351D01*
X109260317Y-88000444D01*
X109260317Y-88000445D01*
X109225826Y-88024595D01*
X109224024Y-88025743D01*
X109187544Y-88046806D01*
X109160467Y-88079074D01*
X109159023Y-88080650D01*
X108530648Y-88709025D01*
X108529072Y-88710469D01*
X108496806Y-88737544D01*
X108475743Y-88774024D01*
X108474595Y-88775826D01*
X108450445Y-88810317D01*
X108450444Y-88810317D01*
X108448351Y-88818132D01*
X108443458Y-88829945D01*
X108439414Y-88836950D01*
X108439410Y-88836960D01*
X108432102Y-88878410D01*
X108431639Y-88880497D01*
X108420736Y-88921191D01*
X108420736Y-88921192D01*
X108424407Y-88963152D01*
X108424500Y-88965288D01*
X108424500Y-89044822D01*
X108410148Y-89079470D01*
X108402724Y-89085563D01*
X108380449Y-89100447D01*
X108380445Y-89100450D01*
X108336133Y-89166769D01*
X108324500Y-89225252D01*
X108324500Y-89894748D01*
X108336133Y-89953231D01*
X108353882Y-89979795D01*
X108380447Y-90019552D01*
X108404202Y-90035424D01*
X108427723Y-90051141D01*
X108448558Y-90082322D01*
X108449500Y-90091882D01*
X108449500Y-91708117D01*
X108435148Y-91742765D01*
X108427723Y-91748859D01*
X108380450Y-91780445D01*
X108380448Y-91780447D01*
X108372048Y-91793019D01*
X108340870Y-91813851D01*
X108330284Y-91815958D01*
X108304940Y-91822750D01*
X108292204Y-91827073D01*
X108171099Y-91877237D01*
X108159034Y-91883187D01*
X108159027Y-91883190D01*
X108159025Y-91883192D01*
X108136316Y-91896302D01*
X108136315Y-91896302D01*
X108125124Y-91903780D01*
X108110695Y-91914852D01*
X108021123Y-91983584D01*
X108011007Y-91992455D01*
X107992455Y-92011007D01*
X107983584Y-92021123D01*
X107903785Y-92125118D01*
X107896312Y-92136302D01*
X107883191Y-92159026D01*
X107880574Y-92164332D01*
X107877241Y-92171090D01*
X107877238Y-92171096D01*
X107827072Y-92292207D01*
X107824967Y-92298408D01*
X107822749Y-92304941D01*
X107822747Y-92304949D01*
X107815958Y-92330291D01*
X107815956Y-92330297D01*
X107813332Y-92343489D01*
X107813331Y-92343492D01*
X107796029Y-92474917D01*
X107795371Y-92481603D01*
X107794720Y-92491515D01*
X107794720Y-92491516D01*
X107794500Y-92498244D01*
X107794500Y-96236384D01*
X107794725Y-96243186D01*
X107795391Y-96253226D01*
X107796068Y-96260010D01*
X107815041Y-96402281D01*
X107819411Y-96435044D01*
X107822104Y-96448403D01*
X107829070Y-96474056D01*
X107833505Y-96486942D01*
X107901321Y-96648357D01*
X107907422Y-96660546D01*
X107907425Y-96660551D01*
X107907424Y-96660550D01*
X107920869Y-96683478D01*
X107920869Y-96683479D01*
X107928524Y-96694748D01*
X108036268Y-96832746D01*
X108036267Y-96832745D01*
X108041094Y-96838148D01*
X108045347Y-96842908D01*
X108064334Y-96861515D01*
X108064337Y-96861517D01*
X108064337Y-96861518D01*
X108074669Y-96870381D01*
X108074669Y-96870380D01*
X108074677Y-96870387D01*
X108214821Y-96975324D01*
X108219382Y-96978289D01*
X108226240Y-96982748D01*
X108226238Y-96982747D01*
X108234242Y-96987225D01*
X108249441Y-96995730D01*
X108253544Y-96997681D01*
X108261740Y-97001579D01*
X108261739Y-97001578D01*
X108261750Y-97001583D01*
X108425896Y-97066682D01*
X108432311Y-97068983D01*
X108435503Y-97070010D01*
X108441887Y-97072064D01*
X108445627Y-97073131D01*
X108448436Y-97073934D01*
X108615052Y-97115588D01*
X108948289Y-97198898D01*
X110492868Y-97615980D01*
X110519095Y-97623062D01*
X110649577Y-97658025D01*
X110742438Y-97678611D01*
X110753371Y-97680540D01*
X110847719Y-97692962D01*
X110899403Y-97697484D01*
X110994448Y-97701633D01*
X111005552Y-97701633D01*
X111100597Y-97697484D01*
X111152281Y-97692962D01*
X111246595Y-97680545D01*
X111257533Y-97678618D01*
X111350425Y-97658024D01*
X111400545Y-97644594D01*
X111491298Y-97615980D01*
X111501732Y-97612178D01*
X111589599Y-97575784D01*
X111636622Y-97553857D01*
X111721003Y-97509931D01*
X111730620Y-97504379D01*
X111810864Y-97453258D01*
X111853368Y-97423495D01*
X111928825Y-97365596D01*
X111937335Y-97358458D01*
X112007490Y-97294172D01*
X112044172Y-97257490D01*
X112108458Y-97187335D01*
X112115595Y-97178826D01*
X112173503Y-97103360D01*
X112203260Y-97060861D01*
X112254379Y-96980620D01*
X112259931Y-96971003D01*
X112303857Y-96886622D01*
X112325784Y-96839599D01*
X112362178Y-96751732D01*
X112365980Y-96741299D01*
X112394597Y-96650536D01*
X112408025Y-96600423D01*
X112428618Y-96507533D01*
X112430545Y-96496595D01*
X112442962Y-96402281D01*
X112447484Y-96350596D01*
X112451633Y-96255552D01*
X112451633Y-96244448D01*
X112447484Y-96149404D01*
X112442962Y-96097719D01*
X112430545Y-96003404D01*
X112428618Y-95992466D01*
X112408024Y-95899577D01*
X112394598Y-95849465D01*
X112365985Y-95758717D01*
X112362184Y-95748281D01*
X112325784Y-95660400D01*
X112303857Y-95613379D01*
X112274466Y-95556920D01*
X112259930Y-95528996D01*
X112254378Y-95519377D01*
X112203259Y-95439138D01*
X112173503Y-95396640D01*
X112115609Y-95321192D01*
X112108482Y-95312692D01*
X112044172Y-95242510D01*
X112007490Y-95205828D01*
X111937307Y-95141517D01*
X111928819Y-95134399D01*
X111853367Y-95076503D01*
X111810863Y-95046741D01*
X111749304Y-95007524D01*
X111740060Y-94999898D01*
X111735108Y-94994671D01*
X111707968Y-94979413D01*
X111707969Y-94979413D01*
X111707963Y-94979410D01*
X111630199Y-94943148D01*
X111537383Y-94899867D01*
X111537374Y-94899864D01*
X111528051Y-94897858D01*
X111519612Y-94895226D01*
X111501746Y-94887826D01*
X111491321Y-94884026D01*
X111400535Y-94855402D01*
X111284838Y-94824402D01*
X111267047Y-94819787D01*
X111249188Y-94815456D01*
X109243332Y-94345905D01*
X109212866Y-94324034D01*
X109205500Y-94298195D01*
X109205500Y-92498243D01*
X109205280Y-92491516D01*
X109204631Y-92481607D01*
X109203971Y-92474918D01*
X109186667Y-92343482D01*
X109186667Y-92343483D01*
X109184043Y-92330294D01*
X109177170Y-92304642D01*
X109175500Y-92291960D01*
X109175500Y-91949500D01*
X109189852Y-91914852D01*
X109224500Y-91900500D01*
X109680252Y-91900500D01*
X110175500Y-91900500D01*
X110210148Y-91914852D01*
X110224500Y-91949500D01*
X110224500Y-92574748D01*
X110236133Y-92633231D01*
X110264349Y-92675459D01*
X110283129Y-92703565D01*
X110282192Y-92704190D01*
X110294500Y-92733892D01*
X110294500Y-93200227D01*
X110294993Y-93210279D01*
X110294993Y-93210280D01*
X110294996Y-93210313D01*
X110296923Y-93229879D01*
X110296924Y-93229883D01*
X110296924Y-93229885D01*
X110298403Y-93239861D01*
X110319381Y-93345333D01*
X110331084Y-93383908D01*
X110338397Y-93401559D01*
X110357381Y-93437074D01*
X110411583Y-93518194D01*
X110437143Y-93549337D01*
X110437149Y-93549344D01*
X110450654Y-93562849D01*
X110450661Y-93562855D01*
X110481804Y-93588415D01*
X110522362Y-93615514D01*
X110562922Y-93642616D01*
X110598453Y-93661607D01*
X110611828Y-93667146D01*
X110616113Y-93668922D01*
X110616115Y-93668922D01*
X110616116Y-93668923D01*
X110654663Y-93680616D01*
X110654671Y-93680617D01*
X110654677Y-93680619D01*
X110708063Y-93691238D01*
X110760109Y-93701591D01*
X110760110Y-93701592D01*
X110770087Y-93703073D01*
X110770086Y-93703072D01*
X110770092Y-93703073D01*
X110789691Y-93705004D01*
X110799775Y-93705500D01*
X110799783Y-93705500D01*
X113450218Y-93705500D01*
X113450226Y-93705500D01*
X113460311Y-93705004D01*
X113460317Y-93705003D01*
X113460325Y-93705003D01*
X113473219Y-93703731D01*
X113479908Y-93703072D01*
X113483541Y-93702533D01*
X113489876Y-93701594D01*
X113595321Y-93680619D01*
X113595321Y-93680618D01*
X113595336Y-93680616D01*
X113633883Y-93668923D01*
X113651546Y-93661607D01*
X113687077Y-93642616D01*
X113768197Y-93588413D01*
X113799337Y-93562856D01*
X113812856Y-93549337D01*
X113838413Y-93518197D01*
X113892616Y-93437077D01*
X113911607Y-93401546D01*
X113918923Y-93383883D01*
X113930616Y-93345336D01*
X113948371Y-93256080D01*
X113951591Y-93239894D01*
X113951591Y-93239893D01*
X113951596Y-93239865D01*
X113952082Y-93236582D01*
X113953073Y-93229911D01*
X113953072Y-93229911D01*
X113953073Y-93229906D01*
X113955004Y-93210305D01*
X113955500Y-93200223D01*
X113955500Y-92805452D01*
X113969851Y-92770805D01*
X114561972Y-92178683D01*
X114596619Y-92164332D01*
X114606172Y-92165273D01*
X114712161Y-92186356D01*
X114981133Y-92203985D01*
X114999999Y-92205222D01*
X115000000Y-92205222D01*
X115000001Y-92205222D01*
X115041119Y-92202526D01*
X115287839Y-92186356D01*
X115570753Y-92130081D01*
X115843902Y-92037359D01*
X116102611Y-91909778D01*
X116342454Y-91749520D01*
X116559327Y-91559327D01*
X116749520Y-91342454D01*
X116909778Y-91102611D01*
X117037359Y-90843902D01*
X117130081Y-90570753D01*
X117186356Y-90287839D01*
X117205222Y-90000000D01*
X117186356Y-89712161D01*
X117130081Y-89429247D01*
X117037359Y-89156098D01*
X116909778Y-88897389D01*
X116802973Y-88737544D01*
X116749520Y-88657545D01*
X116660655Y-88556216D01*
X116559327Y-88440673D01*
X116441840Y-88337639D01*
X116342454Y-88250479D01*
X116102611Y-88090222D01*
X115843900Y-87962640D01*
X115570747Y-87869917D01*
X115340264Y-87824072D01*
X115287839Y-87813644D01*
X115287837Y-87813643D01*
X115287833Y-87813643D01*
X115000001Y-87794778D01*
X114999999Y-87794778D01*
X114712166Y-87813643D01*
X114429252Y-87869917D01*
X114156099Y-87962640D01*
X113897388Y-88090222D01*
X113657545Y-88250479D01*
X113440673Y-88440673D01*
X113250479Y-88657545D01*
X113090222Y-88897388D01*
X112962640Y-89156099D01*
X112869917Y-89429252D01*
X112813643Y-89712166D01*
X112794778Y-89999999D01*
X112794778Y-90000000D01*
X112813643Y-90287833D01*
X112869917Y-90570747D01*
X112962640Y-90843900D01*
X113090222Y-91102611D01*
X113250479Y-91342453D01*
X113297971Y-91396606D01*
X113310026Y-91432118D01*
X113295779Y-91463562D01*
X112979195Y-91780148D01*
X112944547Y-91794500D01*
X111053901Y-91794500D01*
X111024190Y-91782193D01*
X111023565Y-91783129D01*
X110972277Y-91748859D01*
X110951441Y-91717676D01*
X110950500Y-91708117D01*
X110950500Y-90091882D01*
X110964852Y-90057234D01*
X110972272Y-90051143D01*
X111019552Y-90019552D01*
X111063867Y-89953231D01*
X111074455Y-89900000D01*
X111700000Y-89900000D01*
X111700000Y-89200000D01*
X111070477Y-89200000D01*
X111063867Y-89166769D01*
X111037301Y-89127012D01*
X111019552Y-89100447D01*
X110979795Y-89073882D01*
X110953231Y-89056133D01*
X110894748Y-89044500D01*
X110894745Y-89044500D01*
X110518925Y-89044500D01*
X110484277Y-89030148D01*
X110470344Y-89001896D01*
X110467643Y-88981383D01*
X110452653Y-88867516D01*
X110434778Y-88824362D01*
X110392147Y-88721441D01*
X110392146Y-88721440D01*
X110392145Y-88721437D01*
X110379016Y-88704327D01*
X110369310Y-88668105D01*
X110388061Y-88635626D01*
X110417891Y-88625500D01*
X110584710Y-88625500D01*
X110586846Y-88625593D01*
X110594900Y-88626297D01*
X110628807Y-88629264D01*
X110669495Y-88618361D01*
X110671574Y-88617900D01*
X110713045Y-88610588D01*
X110720054Y-88606540D01*
X110731871Y-88601646D01*
X110739684Y-88599554D01*
X110774190Y-88575391D01*
X110775965Y-88574260D01*
X110812455Y-88553194D01*
X110839532Y-88520923D01*
X110840965Y-88519359D01*
X111366867Y-87993458D01*
X111368412Y-87992041D01*
X111400694Y-87964955D01*
X111421760Y-87928465D01*
X111422891Y-87926690D01*
X111447054Y-87892184D01*
X111449146Y-87884371D01*
X111454040Y-87872554D01*
X111458088Y-87865545D01*
X111465401Y-87824063D01*
X111465858Y-87822004D01*
X111474129Y-87791136D01*
X111480712Y-87776606D01*
X111511367Y-87730731D01*
X111523000Y-87672248D01*
X111523000Y-87002752D01*
X111511367Y-86944269D01*
X111480451Y-86898000D01*
X111467052Y-86877947D01*
X111427295Y-86851382D01*
X111400731Y-86833633D01*
X111342248Y-86822000D01*
X111342245Y-86822000D01*
X111291870Y-86822000D01*
X111257222Y-86807648D01*
X111242870Y-86773000D01*
X111243812Y-86763441D01*
X111252999Y-86717253D01*
X111253000Y-86717246D01*
X111253000Y-84287753D01*
X111252999Y-84287746D01*
X111243812Y-84241559D01*
X111251128Y-84204777D01*
X111282311Y-84183942D01*
X111291870Y-84183000D01*
X111342245Y-84183000D01*
X111342248Y-84183000D01*
X111400731Y-84171367D01*
X111467052Y-84127052D01*
X111511367Y-84060731D01*
X111523000Y-84002248D01*
X111523000Y-83332752D01*
X111511367Y-83274269D01*
X111484801Y-83234512D01*
X111467052Y-83207947D01*
X111427295Y-83181382D01*
X111400731Y-83163633D01*
X111342248Y-83152000D01*
X110952752Y-83152000D01*
X110894269Y-83163633D01*
X110827947Y-83207947D01*
X110788242Y-83267371D01*
X110757059Y-83288207D01*
X110720277Y-83280890D01*
X110706758Y-83267371D01*
X110667054Y-83207950D01*
X110667051Y-83207947D01*
X110663031Y-83205261D01*
X110650493Y-83190643D01*
X110649514Y-83191329D01*
X110646081Y-83186427D01*
X110622890Y-83153306D01*
X110621758Y-83151529D01*
X110600694Y-83115045D01*
X110568423Y-83087966D01*
X110566849Y-83086523D01*
X110288468Y-82808142D01*
X110287023Y-82806565D01*
X110259953Y-82774304D01*
X110236585Y-82760813D01*
X110223474Y-82753243D01*
X110221682Y-82752101D01*
X110203868Y-82739628D01*
X110187184Y-82727946D01*
X110187183Y-82727945D01*
X110187182Y-82727945D01*
X110179367Y-82725851D01*
X110167548Y-82720955D01*
X110160546Y-82716912D01*
X110160544Y-82716911D01*
X110119080Y-82709600D01*
X110116993Y-82709137D01*
X110090008Y-82701907D01*
X110076307Y-82698236D01*
X110076306Y-82698236D01*
X110034346Y-82701907D01*
X110032210Y-82702000D01*
X108360556Y-82702000D01*
X108358420Y-82701907D01*
X108327074Y-82699164D01*
X108316459Y-82698236D01*
X108316458Y-82698236D01*
X108316457Y-82698236D01*
X108275763Y-82709139D01*
X108273684Y-82709600D01*
X108263386Y-82711416D01*
X108232226Y-82716910D01*
X108232216Y-82716914D01*
X108225211Y-82720958D01*
X108213398Y-82725851D01*
X108205583Y-82727944D01*
X108205583Y-82727945D01*
X108171092Y-82752095D01*
X108169290Y-82753243D01*
X108132810Y-82774306D01*
X108105733Y-82806574D01*
X108104289Y-82808150D01*
X107392730Y-83519708D01*
X107358082Y-83534060D01*
X107346356Y-83532636D01*
X107248747Y-83508578D01*
X107248744Y-83508578D01*
X107078632Y-83508578D01*
X106913463Y-83549287D01*
X106762844Y-83628339D01*
X106762839Y-83628342D01*
X106762836Y-83628344D01*
X106762834Y-83628346D01*
X106635504Y-83741149D01*
X106538870Y-83881146D01*
X106538869Y-83881148D01*
X106493930Y-83999646D01*
X106478548Y-84040206D01*
X106458043Y-84209078D01*
X104487956Y-84209078D01*
X104646700Y-84055781D01*
X104647923Y-84054681D01*
X105074379Y-83696842D01*
X105075691Y-83695817D01*
X105526083Y-83368587D01*
X105527441Y-83367673D01*
X105999546Y-83072669D01*
X106000996Y-83071833D01*
X106492513Y-82810488D01*
X106494014Y-82809756D01*
X106999115Y-82584871D01*
X107003728Y-82582889D01*
X107004962Y-82582400D01*
X107514550Y-82396925D01*
X107530814Y-82391258D01*
X107532028Y-82390873D01*
X108043082Y-82244330D01*
X108043978Y-82244088D01*
X108069910Y-82237057D01*
X108071174Y-82236752D01*
X108581967Y-82128180D01*
X108618492Y-82120999D01*
X108619770Y-82120783D01*
X109128520Y-82049283D01*
X109142404Y-82047559D01*
X109173844Y-82043655D01*
X109175102Y-82043533D01*
X109680075Y-82008222D01*
X109733224Y-82005406D01*
X109734497Y-82005373D01*
X110233847Y-82005373D01*
X110253140Y-82005713D01*
G37*
%TD.AperFunction*%
%TD*%
%TA.AperFunction,Conductor*%
%TO.N,Net-(LM3401-FB)*%
G36*
X110234476Y-142005383D02*
G01*
X110238510Y-142005524D01*
X110622745Y-142032392D01*
X110784078Y-142043674D01*
X110788376Y-142044126D01*
X111337055Y-142121238D01*
X111341297Y-142121987D01*
X111742307Y-142207224D01*
X111883258Y-142237184D01*
X111887450Y-142238229D01*
X112420089Y-142390961D01*
X112424143Y-142392278D01*
X112944835Y-142581794D01*
X112948819Y-142583404D01*
X112952246Y-142584930D01*
X113454990Y-142808767D01*
X113458880Y-142810664D01*
X113948090Y-143070782D01*
X113951838Y-143072946D01*
X114421709Y-143366553D01*
X114425296Y-143368972D01*
X114803889Y-143644037D01*
X114873529Y-143694633D01*
X114876941Y-143697298D01*
X115301390Y-144053453D01*
X115304600Y-144056343D01*
X115703182Y-144441250D01*
X115706148Y-144444321D01*
X116033758Y-144808168D01*
X116076908Y-144856091D01*
X116079682Y-144859397D01*
X116420797Y-145296004D01*
X116423341Y-145299506D01*
X116733177Y-145758855D01*
X116735471Y-145762527D01*
X117012499Y-146242354D01*
X117014532Y-146246177D01*
X117257411Y-146744153D01*
X117259172Y-146748108D01*
X117466730Y-147261833D01*
X117468210Y-147265900D01*
X117639423Y-147792837D01*
X117640616Y-147796998D01*
X117774658Y-148334611D01*
X117775558Y-148338845D01*
X117871767Y-148884475D01*
X117872369Y-148888762D01*
X117930286Y-149439803D01*
X117930588Y-149444121D01*
X117949924Y-149997836D01*
X117949924Y-150002165D01*
X117930588Y-150555878D01*
X117930286Y-150560196D01*
X117872369Y-151111237D01*
X117871767Y-151115524D01*
X117775558Y-151661154D01*
X117774658Y-151665388D01*
X117640616Y-152203001D01*
X117639423Y-152207162D01*
X117468210Y-152734099D01*
X117466730Y-152738166D01*
X117259172Y-153251891D01*
X117257411Y-153255846D01*
X117014532Y-153753822D01*
X117012499Y-153757645D01*
X116735471Y-154237472D01*
X116733177Y-154241144D01*
X116423341Y-154700493D01*
X116420797Y-154703995D01*
X116079691Y-155140592D01*
X116076908Y-155143908D01*
X115833088Y-155414697D01*
X115706161Y-155555663D01*
X115703163Y-155558769D01*
X115304607Y-155943650D01*
X115301390Y-155946546D01*
X114876941Y-156302701D01*
X114873529Y-156305366D01*
X114425298Y-156631025D01*
X114421709Y-156633446D01*
X113951838Y-156927053D01*
X113948090Y-156929217D01*
X113458880Y-157189335D01*
X113454990Y-157191232D01*
X112948828Y-157416591D01*
X112944814Y-157418213D01*
X112424166Y-157607713D01*
X112420063Y-157609046D01*
X112184579Y-157676570D01*
X111887458Y-157761768D01*
X111883258Y-157762815D01*
X111341303Y-157878011D01*
X111337040Y-157878763D01*
X110788377Y-157955872D01*
X110784072Y-157956325D01*
X110277150Y-157991773D01*
X110238494Y-157994476D01*
X110234548Y-157994613D01*
X110233799Y-157994627D01*
X109735496Y-157994627D01*
X109732215Y-157994540D01*
X109726230Y-157994222D01*
X109680013Y-157991773D01*
X109176161Y-157956540D01*
X109172845Y-157956218D01*
X109128453Y-157950706D01*
X108620829Y-157879365D01*
X108617496Y-157878804D01*
X108581898Y-157871805D01*
X108292097Y-157810206D01*
X108072229Y-157763471D01*
X108068901Y-157762667D01*
X108043030Y-157755653D01*
X107661173Y-157646158D01*
X107533073Y-157609426D01*
X107529774Y-157608379D01*
X107526707Y-157607310D01*
X107514436Y-157603033D01*
X107006020Y-157417983D01*
X107002767Y-157416694D01*
X106999696Y-157415376D01*
X106998990Y-157415072D01*
X106495223Y-157190781D01*
X106491339Y-157188887D01*
X106002157Y-156928784D01*
X105998416Y-156926624D01*
X105528563Y-156633027D01*
X105524980Y-156630610D01*
X105077320Y-156305366D01*
X105076762Y-156304960D01*
X105073375Y-156302315D01*
X104648945Y-155946175D01*
X104645744Y-155943294D01*
X104247190Y-155558416D01*
X104244210Y-155555331D01*
X103873462Y-155143573D01*
X103870702Y-155140283D01*
X103529602Y-154703694D01*
X103527063Y-154700199D01*
X103217246Y-154240879D01*
X103214952Y-154237207D01*
X102937942Y-153757409D01*
X102935909Y-153753587D01*
X102693039Y-153255630D01*
X102691284Y-153251688D01*
X102483739Y-152737995D01*
X102482259Y-152733928D01*
X102311057Y-152207024D01*
X102309864Y-152202863D01*
X102175830Y-151665284D01*
X102174933Y-151661068D01*
X102078726Y-151115445D01*
X102078126Y-151111168D01*
X102020211Y-150560159D01*
X102019911Y-150555869D01*
X102017960Y-150500000D01*
X105250000Y-150500000D01*
X105250000Y-155000000D01*
X114500000Y-155000000D01*
X114500000Y-150500000D01*
X105250000Y-150500000D01*
X102017960Y-150500000D01*
X102000575Y-150002147D01*
X102000575Y-149997852D01*
X102019911Y-149444128D01*
X102020211Y-149439840D01*
X102025971Y-149385044D01*
X102054009Y-149118284D01*
X102078126Y-148888831D01*
X102078725Y-148884558D01*
X102102451Y-148750000D01*
X105094540Y-148750000D01*
X105114326Y-148938256D01*
X105114327Y-148938259D01*
X105172818Y-149118277D01*
X105172821Y-149118284D01*
X105267467Y-149282216D01*
X105360052Y-149385042D01*
X105394129Y-149422888D01*
X105547265Y-149534148D01*
X105547270Y-149534151D01*
X105720192Y-149611142D01*
X105720197Y-149611144D01*
X105905354Y-149650500D01*
X105905355Y-149650500D01*
X106094644Y-149650500D01*
X106094646Y-149650500D01*
X106279803Y-149611144D01*
X106452730Y-149534151D01*
X106605871Y-149422888D01*
X106732533Y-149282216D01*
X106827179Y-149118284D01*
X106885674Y-148938256D01*
X106905460Y-148750000D01*
X106885674Y-148561744D01*
X106827179Y-148381716D01*
X106778179Y-148296845D01*
X107699500Y-148296845D01*
X107699501Y-149303154D01*
X107699501Y-149303153D01*
X107705944Y-149385042D01*
X107721785Y-149444158D01*
X107756978Y-149575501D01*
X107846494Y-149751186D01*
X107970580Y-149904420D01*
X108123814Y-150028506D01*
X108299499Y-150118022D01*
X108489956Y-150169055D01*
X108530901Y-150172277D01*
X108571845Y-150175500D01*
X108571846Y-150175499D01*
X108571847Y-150175500D01*
X109949999Y-150175499D01*
X111328153Y-150175499D01*
X111355449Y-150173351D01*
X111410044Y-150169055D01*
X111600501Y-150118022D01*
X111776186Y-150028506D01*
X111929420Y-149904420D01*
X112053506Y-149751186D01*
X112143022Y-149575501D01*
X112194055Y-149385044D01*
X112200500Y-149303153D01*
X112200499Y-148750000D01*
X112844540Y-148750000D01*
X112864326Y-148938256D01*
X112864327Y-148938259D01*
X112922818Y-149118277D01*
X112922821Y-149118284D01*
X113017467Y-149282216D01*
X113110052Y-149385042D01*
X113144129Y-149422888D01*
X113297265Y-149534148D01*
X113297270Y-149534151D01*
X113470192Y-149611142D01*
X113470197Y-149611144D01*
X113655354Y-149650500D01*
X113655355Y-149650500D01*
X113844644Y-149650500D01*
X113844646Y-149650500D01*
X114029803Y-149611144D01*
X114202730Y-149534151D01*
X114355871Y-149422888D01*
X114482533Y-149282216D01*
X114577179Y-149118284D01*
X114635674Y-148938256D01*
X114655460Y-148750000D01*
X114635674Y-148561744D01*
X114577179Y-148381716D01*
X114482533Y-148217784D01*
X114355871Y-148077112D01*
X114283457Y-148024500D01*
X114202734Y-147965851D01*
X114202729Y-147965848D01*
X114029807Y-147888857D01*
X114029802Y-147888855D01*
X113884001Y-147857865D01*
X113844646Y-147849500D01*
X113655354Y-147849500D01*
X113622897Y-147856398D01*
X113470197Y-147888855D01*
X113470192Y-147888857D01*
X113297270Y-147965848D01*
X113297265Y-147965851D01*
X113144129Y-148077111D01*
X113017466Y-148217785D01*
X112922821Y-148381715D01*
X112922818Y-148381722D01*
X112864327Y-148561740D01*
X112864326Y-148561744D01*
X112844540Y-148750000D01*
X112200499Y-148750000D01*
X112200499Y-148296848D01*
X112194055Y-148214956D01*
X112143022Y-148024499D01*
X112053506Y-147848814D01*
X111929420Y-147695580D01*
X111776186Y-147571494D01*
X111600501Y-147481978D01*
X111600500Y-147481977D01*
X111600499Y-147481977D01*
X111410041Y-147430944D01*
X111328155Y-147424500D01*
X111328153Y-147424500D01*
X109950000Y-147424500D01*
X108571846Y-147424501D01*
X108571847Y-147424501D01*
X108489957Y-147430944D01*
X108299500Y-147481977D01*
X108123815Y-147571493D01*
X107970580Y-147695580D01*
X107846493Y-147848815D01*
X107756977Y-148024500D01*
X107705944Y-148214957D01*
X107705944Y-148214958D01*
X107699500Y-148296845D01*
X106778179Y-148296845D01*
X106732533Y-148217784D01*
X106605871Y-148077112D01*
X106533457Y-148024500D01*
X106452734Y-147965851D01*
X106452729Y-147965848D01*
X106279807Y-147888857D01*
X106279802Y-147888855D01*
X106134001Y-147857865D01*
X106094646Y-147849500D01*
X105905354Y-147849500D01*
X105872897Y-147856398D01*
X105720197Y-147888855D01*
X105720192Y-147888857D01*
X105547270Y-147965848D01*
X105547265Y-147965851D01*
X105394129Y-148077111D01*
X105267466Y-148217785D01*
X105172821Y-148381715D01*
X105172818Y-148381722D01*
X105114327Y-148561740D01*
X105114326Y-148561744D01*
X105094540Y-148750000D01*
X102102451Y-148750000D01*
X102174934Y-148338925D01*
X102175830Y-148334715D01*
X102185272Y-148296848D01*
X102309865Y-147797131D01*
X102311052Y-147792991D01*
X102482262Y-147266062D01*
X102483739Y-147262004D01*
X102483741Y-147262000D01*
X102691289Y-146748297D01*
X102693034Y-146744380D01*
X102935920Y-146246391D01*
X102937942Y-146242590D01*
X103113647Y-145938259D01*
X103214965Y-145762770D01*
X103217232Y-145759141D01*
X103223398Y-145750000D01*
X105094540Y-145750000D01*
X105114326Y-145938256D01*
X105114327Y-145938259D01*
X105172818Y-146118277D01*
X105172821Y-146118284D01*
X105267467Y-146282216D01*
X105394129Y-146422888D01*
X105547265Y-146534148D01*
X105547270Y-146534151D01*
X105720192Y-146611142D01*
X105720197Y-146611144D01*
X105905354Y-146650500D01*
X105905355Y-146650500D01*
X106094644Y-146650500D01*
X106094646Y-146650500D01*
X106279803Y-146611144D01*
X106452730Y-146534151D01*
X106605871Y-146422888D01*
X106732533Y-146282216D01*
X106827179Y-146118284D01*
X106885674Y-145938256D01*
X106905460Y-145750000D01*
X109094540Y-145750000D01*
X109114326Y-145938256D01*
X109114327Y-145938259D01*
X109172818Y-146118277D01*
X109172821Y-146118284D01*
X109267467Y-146282216D01*
X109394129Y-146422888D01*
X109547265Y-146534148D01*
X109547270Y-146534151D01*
X109720192Y-146611142D01*
X109720197Y-146611144D01*
X109905354Y-146650500D01*
X109905355Y-146650500D01*
X110094644Y-146650500D01*
X110094646Y-146650500D01*
X110279803Y-146611144D01*
X110452730Y-146534151D01*
X110605871Y-146422888D01*
X110732533Y-146282216D01*
X110827179Y-146118284D01*
X110885674Y-145938256D01*
X110905460Y-145750000D01*
X112844540Y-145750000D01*
X112864326Y-145938256D01*
X112864327Y-145938259D01*
X112922818Y-146118277D01*
X112922821Y-146118284D01*
X113017467Y-146282216D01*
X113144129Y-146422888D01*
X113297265Y-146534148D01*
X113297270Y-146534151D01*
X113470192Y-146611142D01*
X113470197Y-146611144D01*
X113655354Y-146650500D01*
X113655355Y-146650500D01*
X113844644Y-146650500D01*
X113844646Y-146650500D01*
X114029803Y-146611144D01*
X114202730Y-146534151D01*
X114355871Y-146422888D01*
X114482533Y-146282216D01*
X114577179Y-146118284D01*
X114635674Y-145938256D01*
X114655460Y-145750000D01*
X114635674Y-145561744D01*
X114577179Y-145381716D01*
X114482533Y-145217784D01*
X114355871Y-145077112D01*
X114355870Y-145077111D01*
X114202734Y-144965851D01*
X114202729Y-144965848D01*
X114029807Y-144888857D01*
X114029802Y-144888855D01*
X113866960Y-144854243D01*
X113844646Y-144849500D01*
X113655354Y-144849500D01*
X113633040Y-144854243D01*
X113470197Y-144888855D01*
X113470192Y-144888857D01*
X113297270Y-144965848D01*
X113297265Y-144965851D01*
X113144129Y-145077111D01*
X113017466Y-145217785D01*
X112922821Y-145381715D01*
X112922818Y-145381722D01*
X112864327Y-145561740D01*
X112864326Y-145561744D01*
X112844540Y-145750000D01*
X110905460Y-145750000D01*
X110885674Y-145561744D01*
X110827179Y-145381716D01*
X110732533Y-145217784D01*
X110605871Y-145077112D01*
X110605870Y-145077111D01*
X110452734Y-144965851D01*
X110452729Y-144965848D01*
X110279807Y-144888857D01*
X110279802Y-144888855D01*
X110116960Y-144854243D01*
X110094646Y-144849500D01*
X109905354Y-144849500D01*
X109883040Y-144854243D01*
X109720197Y-144888855D01*
X109720192Y-144888857D01*
X109547270Y-144965848D01*
X109547265Y-144965851D01*
X109394129Y-145077111D01*
X109267466Y-145217785D01*
X109172821Y-145381715D01*
X109172818Y-145381722D01*
X109114327Y-145561740D01*
X109114326Y-145561744D01*
X109094540Y-145750000D01*
X106905460Y-145750000D01*
X106885674Y-145561744D01*
X106827179Y-145381716D01*
X106732533Y-145217784D01*
X106605871Y-145077112D01*
X106605870Y-145077111D01*
X106452734Y-144965851D01*
X106452729Y-144965848D01*
X106279807Y-144888857D01*
X106279802Y-144888855D01*
X106116960Y-144854243D01*
X106094646Y-144849500D01*
X105905354Y-144849500D01*
X105883040Y-144854243D01*
X105720197Y-144888855D01*
X105720192Y-144888857D01*
X105547270Y-144965848D01*
X105547265Y-144965851D01*
X105394129Y-145077111D01*
X105267466Y-145217785D01*
X105172821Y-145381715D01*
X105172818Y-145381722D01*
X105114327Y-145561740D01*
X105114326Y-145561744D01*
X105094540Y-145750000D01*
X103223398Y-145750000D01*
X103527063Y-145299800D01*
X103529592Y-145296318D01*
X103870713Y-144859701D01*
X103873450Y-144856440D01*
X104244224Y-144444653D01*
X104247176Y-144441597D01*
X104645760Y-144056690D01*
X104648928Y-144053837D01*
X105073392Y-143697670D01*
X105076743Y-143695052D01*
X105524995Y-143369378D01*
X105528543Y-143366984D01*
X105998437Y-143073362D01*
X106002135Y-143071227D01*
X106491362Y-142811100D01*
X106495209Y-142809224D01*
X106998996Y-142584924D01*
X107002769Y-142583302D01*
X107005962Y-142582036D01*
X107514538Y-142396929D01*
X107529829Y-142391601D01*
X107533019Y-142390589D01*
X108043058Y-142244337D01*
X108068932Y-142237323D01*
X108072152Y-142236544D01*
X108581919Y-142128190D01*
X108617526Y-142121189D01*
X108620761Y-142120644D01*
X109128580Y-142049275D01*
X109172829Y-142043781D01*
X109176094Y-142043464D01*
X109680038Y-142008224D01*
X109732217Y-142005459D01*
X109735491Y-142005373D01*
X110233895Y-142005373D01*
X110234476Y-142005383D01*
G37*
%TD.AperFunction*%
%TD*%
M02*
